<?xml version="1.0" encoding="UTF-8"?>
<svg version="1.1" xmlns="http://www.w3.org/2000/svg" width="1334" height="1069">
<path d="M0 0 C2.33795201 0.02964289 4.63184641 0.13251905 6.96286011 0.28796387 C7.71440522 0.33555328 8.46595033 0.38314269 9.24026954 0.43217421 C20.37822845 1.17894038 31.48496353 2.31148581 42.59423828 3.39257812 C45.13705411 3.63767286 47.67989647 3.88249244 50.22276306 4.12705994 C56.37056501 4.7190788 62.51807872 5.31401216 68.66546233 5.91035736 C75.83554439 6.60578627 83.00594993 7.29785192 90.17636751 7.98981124 C102.96939426 9.22448077 115.76212364 10.46220456 128.5546875 11.70166016 C140.95257598 12.9028738 153.35067953 14.10183584 165.74902344 15.29833984 C166.51423117 15.37218661 167.2794389 15.44603337 168.06783475 15.52211791 C168.83175856 15.59584064 169.59568238 15.66956337 170.3827554 15.74552011 C184.53330516 17.11114284 198.68364988 18.47887983 212.83390103 19.8475931 C217.82713895 20.33052579 222.82043722 20.81283129 227.81375504 21.29493713 C234.529745 21.94341356 241.24555881 22.59368674 247.96125984 23.24514961 C250.42549284 23.48394482 252.88977853 23.72219693 255.35412025 23.95986748 C258.71621687 24.28421768 262.07811609 24.61054295 265.43997192 24.93737793 C266.90362645 25.07789605 266.90362645 25.07789605 268.39684975 25.22125292 C282.60946355 26.60946355 282.60946355 26.60946355 284 28 C284.11958633 29.85593227 284.16783248 31.71646059 284.18988705 33.57611084 C284.20673247 34.80984688 284.22357789 36.04358292 284.24093378 37.3147049 C284.25484567 38.71728874 284.26859812 40.11987417 284.2822113 41.52246094 C284.30017585 43.02140452 284.3184879 44.52034396 284.33711302 46.01927948 C284.38805468 50.25761701 284.43176544 54.49600416 284.47394045 58.73443699 C284.50204759 61.51790726 284.53189921 64.30135391 284.56223571 67.08480072 C285.22689004 128.39036969 285.52034547 189.70009235 285.8777121 251.00804591 C285.95210752 263.76729157 286.02753003 276.52653085 286.10360527 289.2857666 C286.10908192 290.20454469 286.11455857 291.12332278 286.12020117 292.06994262 C286.14245371 295.80301927 286.16470945 299.53609591 286.18697059 303.2691725 C286.39420745 338.0248999 286.59861128 372.78064343 286.8016859 407.53639537 C286.98065601 438.16360136 287.16221653 468.79079096 287.34594727 499.41796875 C287.55414571 534.12522101 287.76063793 568.83248279 287.96453851 603.53976059 C287.98642584 607.26458488 288.00831726 610.98940914 288.03021049 614.7142334 C288.0355966 615.63084571 288.0409827 616.54745803 288.04653201 617.49184647 C288.12134184 630.21851095 288.19714283 642.94516917 288.27371267 655.67182317 C289.07563384 788.99652554 289.07563384 788.99652554 289.11246745 839.73962498 C289.1149587 842.48092792 289.11912552 845.22222372 289.12372029 847.96352386 C289.13017356 852.06508694 289.13153583 856.16661533 289.1280715 860.2681818 C289.1274863 861.72172351 289.12850656 863.17526691 289.13126592 864.62880611 C289.13450969 866.5604983 289.1309174 868.49219853 289.12685299 870.42388916 C289.12654046 871.48721592 289.12622793 872.55054268 289.12590593 873.64609146 C289 876 289 876 288 877 C278.68978583 876.88772879 269.3570212 874.80586856 260.20703125 873.21191406 C258.53501624 872.92394783 256.86293587 872.63636085 255.1907959 872.34912109 C250.67255939 871.5718368 246.15527253 870.78915945 241.63815689 870.00539112 C236.87606098 869.17998544 232.11314952 868.35931136 227.3503418 867.5380249 C219.33721906 866.15556012 211.32467118 864.76980437 203.3125 863.38183594 C194.12087195 861.7895649 184.92854796 860.20136799 175.73578358 858.6156714 C165.87279876 856.91435676 156.01025789 855.2104801 146.14788437 853.50562572 C143.34616845 853.02144346 140.544383 852.5376653 137.74258423 852.05396271 C120.83275093 849.13368343 103.923783 846.20841047 87.04296875 843.12402344 C85.9178035 842.92079594 84.79263824 842.71756844 83.63337708 842.50818253 C82.62796371 842.32225414 81.62255035 842.13632576 80.58666992 841.94476318 C79.71733322 841.78518002 78.84799652 841.62559685 77.95231628 841.46117783 C76 841 76 841 75 840 C74.89845921 837.61259104 74.86390556 835.25421473 74.87060547 832.86611938 C74.86887864 832.0963019 74.86715181 831.32648443 74.86537266 830.53333914 C74.86092611 827.87718656 74.8640316 825.22109524 74.8671875 822.56494141 C74.86612082 820.60214595 74.86473086 818.63935066 74.86305237 816.67655563 C74.86014094 811.07658366 74.86485865 805.47663865 74.87122726 799.87667036 C74.87504393 796.18406228 74.87708802 792.49145687 74.87869263 788.7988472 C74.92652638 693.5673724 75.51443737 598.33575744 75.96354675 503.10557556 C76.02431514 490.21996107 76.08498095 477.3343461 76.14550781 464.44873047 C76.1514818 463.17706915 76.15745579 461.90540783 76.16361082 460.59521131 C76.26480117 439.04169852 76.3639984 417.48817693 76.46193409 395.93464911 C76.51627702 383.99347708 76.57157591 372.05231119 76.62960815 360.11115646 C76.95021255 294.07366663 77.05872313 228.03825721 77 162 C74.74382177 164.41055245 72.48898201 166.82235299 70.234375 169.234375 C69.59806152 169.91419434 68.96174805 170.59401367 68.30615234 171.29443359 C64.70039442 175.15339168 61.14911922 179.04395242 57.703125 183.046875 C55.50634095 185.56612276 53.25310381 188.03102996 51 190.5 C47.54424587 194.28934126 44.1347711 198.11083698 40.76953125 201.98046875 C36.46130252 206.89736556 32.05313844 211.72639032 27.671875 216.578125 C24.27655062 220.3430085 20.88941658 224.11193551 17.5625 227.9375 C13.90942044 232.13303221 10.15494451 236.23373553 6.40625 240.34375 C4.41351047 242.54352741 2.4466186 244.75955218 0.5 247 C-3.12944941 251.17729083 -6.8647902 255.25537239 -10.59375 259.34375 C-12.58648953 261.54352741 -14.5533814 263.75955218 -16.5 266 C-19.28814098 269.20899244 -22.13528185 272.35916444 -25 275.5 C-28.45575413 279.28934126 -31.8652289 283.11083698 -35.23046875 286.98046875 C-39.53869748 291.89736556 -43.94686156 296.72639032 -48.328125 301.578125 C-51.72344938 305.3430085 -55.11058342 309.11193551 -58.4375 312.9375 C-62.09057956 317.13303221 -65.84505549 321.23373553 -69.59375 325.34375 C-71.58648953 327.54352741 -73.5533814 329.75955218 -75.5 332 C-78.28814098 335.20899244 -81.13528185 338.35916444 -84 341.5 C-87.45575413 345.28934126 -90.8652289 349.11083698 -94.23046875 352.98046875 C-98.53869748 357.89736556 -102.94686156 362.72639032 -107.328125 367.578125 C-110.72344938 371.3430085 -114.11058342 375.11193551 -117.4375 378.9375 C-121.09057956 383.13303221 -124.84505549 387.23373553 -128.59375 391.34375 C-130.58648953 393.54352741 -132.5533814 395.75955218 -134.5 398 C-137.28814098 401.20899244 -140.13528185 404.35916444 -143 407.5 C-146.45575413 411.28934126 -149.8652289 415.11083698 -153.23046875 418.98046875 C-157.53869748 423.89736556 -161.94686156 428.72639032 -166.328125 433.578125 C-169.72344938 437.3430085 -173.11058342 441.11193551 -176.4375 444.9375 C-180.09057956 449.13303221 -183.84505549 453.23373553 -187.59375 457.34375 C-189.58648953 459.54352741 -191.5533814 461.75955218 -193.5 464 C-196.28814098 467.20899244 -199.13528185 470.35916444 -202 473.5 C-205.45328153 477.28662998 -208.86099051 481.1047632 -212.22265625 484.97265625 C-214.29359487 487.33489173 -216.39512848 489.66795853 -218.5 492 C-222.37699282 496.29594745 -226.20502898 500.63151246 -230 505 C-231.32 504.67 -232.64 504.34 -234 504 C-233.3587314 499.77009363 -231.91168777 496.35100368 -230.078125 492.49609375 C-229.63408577 491.55599709 -229.63408577 491.55599709 -229.18107605 490.59690857 C-228.20899356 488.54138952 -227.22941598 486.48953344 -226.25 484.4375 C-225.5658409 482.9933075 -224.88233713 481.54880438 -224.19946289 480.10400391 C-223.15290541 477.88990017 -222.10597133 475.67598448 -221.05702209 473.4630127 C-217.81271185 466.61771245 -214.61940973 459.7495451 -211.4375 452.875 C-206.81416053 442.90069046 -202.17101278 432.93580268 -197.51675415 422.97589111 C-193.81465739 415.05168541 -190.12642418 407.12119275 -186.453125 399.18359375 C-185.86383209 397.91020142 -185.86383209 397.91020142 -185.26263428 396.61108398 C-184.45685661 394.86977682 -183.65109093 393.12846411 -182.84533691 391.387146 C-176.4809609 377.63374025 -170.08934412 363.89422887 -163.625 350.1875 C-155.96275234 333.93959182 -148.38948716 317.65129723 -140.84765625 301.34716797 C-138.46177571 296.18939051 -136.07504506 291.03200716 -133.6875 285.875 C-133.28242218 285.00000854 -132.87734436 284.12501709 -132.45999146 283.22351074 C-126.88846866 271.19244612 -121.28028252 259.17941398 -115.625 247.1875 C-107.96284997 230.93954543 -100.38948749 214.65129795 -92.84765625 198.34716797 C-90.46177571 193.18939051 -88.07504506 188.03200716 -85.6875 182.875 C-85.07988327 181.56251282 -85.07988327 181.56251282 -84.45999146 180.22351074 C-78.88846866 168.19244612 -73.28028252 156.17941398 -67.625 144.1875 C-59.96284997 127.93954543 -52.38948749 111.65129795 -44.84765625 95.34716797 C-42.46177963 90.18938869 -40.07497991 85.03203732 -37.6875 79.875 C-37.28308685 79.00133789 -36.87867371 78.12767578 -36.46200562 77.22753906 C-30.52585855 64.40727157 -24.54065066 51.61109869 -18.50762939 38.83615112 C-13.65315547 28.55588372 -8.86836176 18.24750488 -4.18359375 7.88842773 C-3.77367187 6.98552002 -3.36375 6.0826123 -2.94140625 5.15234375 C-2.41075562 3.9765979 -2.41075562 3.9765979 -1.86938477 2.77709961 C-1 1 -1 1 0 0 Z M62 70 C60.43735098 71.84092899 58.99407788 73.68539833 57.5625 75.625 C56.65701429 76.82739886 55.7507374 78.02920224 54.84375 79.23046875 C54.37453125 79.8548584 53.9053125 80.47924805 53.421875 81.12255859 C51.17367733 84.09107509 48.86940083 87.01451657 46.5625 89.9375 C45.63668627 91.11325568 44.71090522 92.28903708 43.78515625 93.46484375 C43.32512207 94.04862793 42.86508789 94.63241211 42.39111328 95.23388672 C40.09125763 98.15371048 37.79584055 101.07701893 35.5 104 C34.5833549 105.16668361 33.66668823 106.33335027 32.75 107.5 C32.29625 108.0775 31.8425 108.655 31.375 109.25 C27.25 114.5 27.25 114.5 25.87524414 116.24951172 C24.95753368 117.41762534 24.04005362 118.58592 23.12280273 119.75439453 C20.84894928 122.65044268 18.57133478 125.54335624 16.28515625 128.4296875 C14.00180484 131.31364093 11.73820855 134.21245352 9.47949219 137.11572266 C7.86001537 139.17828405 6.2146495 141.21893564 4.5703125 143.26171875 C3.44186189 144.69464632 2.3142406 146.12822743 1.1875 147.5625 C0.3677771 148.56289307 0.3677771 148.56289307 -0.46850586 149.58349609 C-1.83797118 151.35030177 -3.03095702 152.98580033 -4 155 C-3.73474719 157.65942622 -3.73474719 157.65942622 -2 160 C-1.35804688 161.09957031 -0.71609375 162.19914062 -0.0546875 163.33203125 C0.66786737 164.49468772 1.39450881 165.65481343 2.125 166.8125 C2.49753906 167.40998047 2.87007812 168.00746094 3.25390625 168.62304688 C4.1657048 170.08426251 5.08235976 171.54244585 6 173 C9.9014272 171.38369445 12.7143586 168.72561183 15.75 165.875 C16.28077148 165.38290039 16.81154297 164.89080078 17.35839844 164.38378906 C21.04283211 160.94960194 24.61229923 157.41471439 28.14453125 153.82421875 C30.01413647 151.98610162 31.94850607 150.27014312 33.9375 148.5625 C36.92801716 145.99334729 39.73116684 143.30682744 42.5 140.5 C45.86114482 137.0928121 49.33701203 133.92541826 52.96875 130.8125 C56.03152331 128.07956381 58.87237403 125.13632789 61.75390625 122.21484375 C64.52229535 119.48497137 67.4162928 116.93516797 70.37109375 114.41015625 C71.62607573 113.32370902 72.82625655 112.17374345 74 111 C75.63912482 111.17354658 77.27871177 111.36816501 78.89962769 111.66729736 C81.18104408 112.0286777 83.40211748 112.0996539 85.70922852 112.19287109 C91.58325944 112.80539486 96.52055038 113.97623565 101 118 C106.51734744 127.68225956 108.23349976 139.35585947 110.42596436 150.15911865 C111.26820847 154.21919556 112.206608 158.25665389 113.13867188 162.296875 C114.54797469 168.45150485 115.90720073 174.61459429 117.22216797 180.79003906 C119.24143376 190.25474833 121.54987379 199.63799319 124 209 C143.2885202 209.13174704 143.2885202 209.13174704 162 206 C160.77263403 199.4608451 159.29220339 193.06182306 157.48144531 186.66088867 C157.23719818 185.78607849 156.99295105 184.91126831 156.74130249 184.00994873 C155.94043889 181.14495398 155.13434471 178.28146043 154.328125 175.41796875 C153.76212327 173.3975725 153.19643484 171.37708846 152.63104248 169.35652161 C151.14393311 164.04546483 149.65230406 158.73568754 148.15979004 153.42614746 C146.95740857 149.14594048 145.75815473 144.86486044 144.5591011 140.58372021 C139.0858661 121.04237497 133.59077663 101.50808763 128 82 C116.22077996 79.05548007 104.2948567 77.01546742 92.33959961 74.9284668 C88.7823245 74.3072302 85.22607185 73.68037641 81.66992188 73.05273438 C79.4115155 72.65592449 77.15305395 72.25942847 74.89453125 71.86328125 C73.29784355 71.58210197 73.29784355 71.58210197 71.66889954 71.29524231 C70.20047859 71.03948677 70.20047859 71.03948677 68.70239258 70.77856445 C67.84003494 70.62772903 66.97767731 70.47689362 66.08918762 70.32148743 C64.02284092 69.94930288 64.02284092 69.94930288 62 70 Z M-221 485 C-220 487 -220 487 -220 487 Z " fill="#FFC90E" transform="translate(937,110)"/>
<path d="M0 0 C15.29748995 0.64636773 30.55428826 1.62278864 45.82324219 2.75 C48.23533528 2.92608585 50.64744517 3.10194168 53.05957031 3.27758789 C58.87319513 3.70154262 64.68663699 4.12793754 70.49999365 4.55555248 C77.28678317 5.05467177 84.07377523 5.55101078 90.860773 6.04728889 C102.97147307 6.93294896 115.08198026 7.82121925 127.19238281 8.7109375 C138.91878992 9.5724435 150.6453481 10.43185623 162.37207031 11.2890625 C175.18987001 12.22602831 188.00759153 13.16405024 200.82517362 14.10398865 C202.19246244 14.20425418 203.55975127 14.30451968 204.9270401 14.40478516 C205.59955008 14.45410344 206.27206005 14.50342173 206.96494912 14.5542345 C211.68729295 14.90048448 216.40968855 15.24602272 221.13210297 15.59130859 C227.48533045 16.05595204 233.83843058 16.52230054 240.19143677 16.98995972 C242.51938892 17.16105973 244.84738322 17.33158737 247.17542267 17.50149536 C250.35703623 17.73379928 253.53848872 17.96819993 256.71990967 18.203125 C257.63654286 18.26956711 258.55317605 18.33600922 259.49758601 18.40446472 C265.01608772 18.8147294 270.50342917 19.35851353 276 20 C278.52910273 27.07915236 280.22807332 34.13953121 281.74194336 41.49707031 C282.12950145 43.34778767 282.12950145 43.34778767 282.52488899 45.23589325 C283.23614131 48.63287481 283.9407891 52.03119673 284.64435124 55.4297781 C285.40362973 59.09132921 286.1692592 62.75155237 286.93418884 66.41192627 C288.25261503 72.72486179 289.56735721 79.03855495 290.87957764 85.3527832 C292.94491186 95.29038892 295.01783501 105.22640313 297.09228516 115.16210938 C297.62061865 117.69282388 298.14893922 120.22354109 298.67725587 122.75425911 C299.03188537 124.45298518 299.38652429 126.15170929 299.74117255 127.85043144 C300.99890279 133.87514563 302.25565844 139.90006264 303.51208496 145.92504883 C310.46460859 179.26138556 317.46818883 212.5869102 324.48704177 245.90933681 C325.71955571 251.76109669 326.95103756 257.6130734 328.18226153 263.46510482 C329.47587713 269.61351524 330.77031976 275.76175121 332.06515694 281.90990448 C332.59449167 284.42371669 333.12360373 286.9375758 333.65247917 289.45148468 C334.37029406 292.86299241 335.08906143 296.27429803 335.80810547 299.68554688 C336.12249526 301.18117598 336.12249526 301.18117598 336.44323635 302.70701981 C336.63533719 303.61738369 336.82743803 304.52774757 337.02536011 305.46569824 C337.19065657 306.25057365 337.35595303 307.03544907 337.52625847 307.84410858 C337.97958106 309.907078 338.47660934 311.95380026 339 314 C347.68898352 299.5610989 356.32945479 285.09450832 364.92544556 270.60009766 C370.04788518 261.96333634 375.18675565 253.3372067 380.36401367 244.7331543 C385.10733247 236.84069671 389.8024373 228.91973734 394.5 221 C400.09717795 211.56357901 405.70654263 202.13525866 411.36328125 192.734375 C416.10684154 184.84150884 420.80219518 176.92014554 425.5 169 C431.09717795 159.56357901 436.70654263 150.13525866 442.36328125 140.734375 C447.10684154 132.84150884 451.80219518 124.92014554 456.5 117 C462.09717795 107.56357901 467.70654263 98.13525866 473.36328125 88.734375 C478.10684206 80.84150798 482.80210543 72.92009312 487.5 65 C499.64006358 44.53470431 499.64006358 44.53470431 504.83789062 35.93237305 C507.3512113 31.77068833 509.8228775 27.58929607 512.25390625 23.37890625 C512.79668213 22.44852539 513.33945801 21.51814453 513.89868164 20.55957031 C514.94073435 18.77192326 515.97302641 16.97853874 516.99389648 15.17871094 C517.45997314 14.38368164 517.9260498 13.58865234 518.40625 12.76953125 C519.01436523 11.71149292 519.01436523 11.71149292 519.63476562 10.63208008 C521.3118754 8.62716612 522.43036421 8.2730073 525 8 C525.33 8.33 525.66 8.66 526 9 C525.78506389 18.43847995 524.49181155 27.85364508 523.27903748 37.20570374 C523.10363084 38.5805875 522.92856649 39.95551498 522.75380951 41.33048147 C522.27736356 45.07132873 521.79612948 48.81154604 521.31404459 52.55167019 C520.79216701 56.60734133 520.27483632 60.66359284 519.75692749 64.71977234 C518.85699384 71.76301832 517.9542162 78.80589503 517.0494976 85.84852791 C515.72398591 96.16682817 514.40289689 106.48569113 513.08278442 116.80468338 C510.91736643 133.73028724 508.74847477 150.6554441 506.57739258 167.58032227 C504.50924552 183.70282094 502.44258554 199.82550891 500.37817383 215.94848633 C500.25292986 216.92662374 500.1276859 217.90476114 499.99864666 218.91253908 C499.24250061 224.81801568 498.4864105 230.72349944 497.73033974 236.62898567 C496.60300226 245.43433997 495.4756076 254.23968694 494.34805298 263.04501343 C494.1631314 264.48911359 494.1631314 264.48911359 493.97447403 265.96238749 C492.24507991 279.4670606 490.51383186 292.971495 488.78110506 306.47574089 C487.69226729 314.9618313 486.60366985 323.44795254 485.51513672 331.93408203 C485.39736837 332.85214859 485.27960002 333.77021515 485.15826294 334.71610191 C482.06298668 358.84648711 478.98159164 382.9785734 475.92256923 407.11358197 C475.2447622 412.46099717 474.56598754 417.8082887 473.88649464 423.15548992 C473.79359399 423.886611 473.70069334 424.61773207 473.60497752 425.37100833 C473.23752859 428.26268307 472.87005701 431.15435491 472.50246135 434.04601099 C471.546651 441.5651099 470.59286473 449.08445023 469.64632988 456.60472298 C468.86911019 462.77917811 468.08663395 468.95294241 467.29989314 475.12619138 C467.01826377 477.34444658 466.7387471 479.56297123 466.46153569 481.78178287 C466.08786037 484.77102368 465.70680791 487.75923333 465.3238678 490.74729919 C465.21820714 491.60764127 465.11254648 492.46798335 465.00368398 493.3543964 C464.90023989 494.14956526 464.79679579 494.94473411 464.69021702 495.76399899 C464.60451216 496.44265859 464.51880731 497.12131819 464.43050534 497.82054323 C463.87317708 500.64204796 462.9486105 503.28833589 462 506 C453.4436529 505.41639931 444.96620478 504.57161243 436.46585083 503.44003296 C435.27167282 503.28392284 434.07749481 503.12781272 432.84712958 502.96697199 C429.56560674 502.53728734 426.28451768 502.10452519 423.00358114 501.67040062 C419.43772382 501.19936518 415.8713334 500.73239769 412.30500984 500.26490784 C406.10073725 499.4510656 399.89680374 498.63467897 393.69309235 497.81657028 C384.58715639 496.61574647 375.48069408 495.41895252 366.37411338 494.22302921 C350.40321581 492.12552701 334.43282017 490.02422436 318.46265274 487.92117091 C304.6795377 486.10612746 290.89627813 484.29218703 277.112854 482.47949219 C275.75078332 482.30036119 275.75078332 482.30036119 274.36119606 482.11761138 C268.859946 481.39412924 263.35869069 480.67068701 257.85743406 479.94725484 C249.63245644 478.86563502 241.40748997 477.78393033 233.18252563 476.70220947 C232.28148093 476.58370873 231.38043623 476.46520799 230.45208715 476.34311631 C217.75288132 474.67296706 205.05376641 473.00212802 192.35471015 471.33084193 C153.45899408 466.21198395 114.56188701 461.10425528 75.6606636 456.02739334 C69.20689303 455.18507357 62.75325218 454.34176337 56.2996521 453.49813843 C55.28296916 453.36524426 54.26628622 453.23235009 53.2187947 453.09542882 C49.25474039 452.57726631 45.29068791 452.05908981 41.32664752 451.54082084 C30.32454541 450.1024348 19.32202552 448.66734938 8.31875372 447.23793781 C1.67540329 446.37461336 -4.96740419 445.50719835 -11.60976362 444.63628209 C-15.99923262 444.06093174 -20.38926836 443.49025385 -24.7798866 442.92374384 C-27.96472863 442.51125731 -31.14855109 442.09104327 -34.33251953 441.671875 C-36.00176137 441.45888795 -36.00176137 441.45888795 -37.70472527 441.24159813 C-38.72224436 441.10611879 -39.73976345 440.97063946 -40.78811646 440.83105469 C-41.65747393 440.71783875 -42.5268314 440.6046228 -43.42253304 440.48797607 C-46.39389563 439.92542615 -49.14090944 438.97639383 -52 438 C-51.35597468 427.4594013 -50.27238062 417.01608562 -49.03297424 406.53260803 C-48.83115584 404.80550336 -48.62961175 403.07836661 -48.42831558 401.351201 C-47.87860546 396.64155333 -47.32497491 391.93237386 -46.77064598 387.22326791 C-46.17189596 382.13089181 -45.57680019 377.03808844 -44.98120117 371.94534302 C-43.8157081 361.98498294 -42.64672376 352.02503566 -41.47635908 342.06524695 C-40.52532189 333.9717391 -39.57533387 325.87810877 -38.62608147 317.7843914 C-35.9334165 294.82648226 -33.2382218 271.8688723 -30.53958321 248.91166455 C-30.32167531 247.05793088 -30.32167531 247.05793088 -30.09936523 245.16674805 C-29.95391523 243.92941488 -29.80846523 242.69208172 -29.65860765 241.41725361 C-27.29808939 221.33517928 -24.94353813 201.25241046 -22.59170509 181.16931731 C-20.17557077 160.53768711 -17.75512617 139.90656661 -15.33012146 119.27597708 C-13.96919848 107.6972665 -12.61004554 96.11835453 -11.25549507 84.53889656 C-10.10314062 74.68824915 -8.94677367 64.83808311 -7.78516979 54.98852194 C-7.1926275 49.96320927 -6.60196863 44.93769398 -6.01634789 39.9115696 C-5.48033574 35.31162905 -4.93897588 30.71235074 -4.39333271 26.11354297 C-4.19681781 24.44921404 -4.00226765 22.78465171 -3.80987401 21.11984134 C-3.54812636 18.8574475 -3.27923164 16.59601219 -3.0085535 14.33467197 C-2.86100465 13.07817201 -2.71345579 11.82167205 -2.56143576 10.52709633 C-1.97899589 6.86804632 -1.08910801 3.53546927 0 0 Z " fill="#C3C3C3" transform="translate(204,113)"/>
<path d="M0 0 C9.61149237 0.16524991 19.2279123 1.96915455 28.71875 3.40039062 C30.39674884 3.65049039 32.07479902 3.90024587 33.75289536 4.14969063 C37.39735272 4.69220747 41.04142966 5.23719162 44.68523407 5.78407669 C50.67063245 6.68239655 56.65683987 7.57524867 62.64312744 8.46762085 C71.44119233 9.77973131 80.23885322 11.09452225 89.03625488 12.41107178 C103.16647772 14.52560307 117.29751317 16.63467093 131.42871094 18.74267578 C133.87987164 19.10834383 136.33103207 19.47401373 138.78219223 19.83968544 C142.52595002 20.39819077 146.26970847 20.95669175 150.01347041 21.51516926 C158.40461997 22.76696312 166.79568465 24.01932469 175.18671033 25.27194865 C216.89788498 31.49850112 258.61231114 37.70304776 300.328125 43.8984375 C301.88234907 44.12926671 303.43657308 44.36009627 304.99079704 44.59092617 C323.51999677 47.34282187 342.04928334 50.09413259 360.57860899 52.84518027 C374.81835369 54.95935661 389.05806781 57.07373882 403.29775152 59.18832596 C407.6465281 59.83411099 411.99531501 60.4798265 416.34410998 61.1254877 C430.15618226 63.17617536 443.96810872 65.22782875 457.77940756 67.28371975 C463.56448596 68.1448254 469.3496221 69.00554293 475.13476562 69.86621094 C476.36233424 70.04886458 477.58990286 70.23151822 478.85467052 70.41970682 C493.46566505 72.59302585 508.07912275 74.74775939 522.69786692 76.868325 C527.46575932 77.56089387 532.23291517 78.25851613 537.00004077 78.95634139 C541.6889505 79.64185856 546.37980209 80.31267669 551.0713501 80.97994995 C563.99367889 82.8512072 576.4814025 85.27371468 589 89 C590.70310333 89.49796082 590.70310333 89.49796082 592.44061279 90.00598145 C595.45895588 90.90861801 598.46482052 91.84356186 601.46875 92.79296875 C602.56818939 93.13629745 603.66762878 93.47962616 604.80038452 93.83335876 C607.14903005 94.5670937 609.49711542 95.30262382 611.84466553 96.03985596 C617.57740489 97.83973069 623.3138768 99.62761888 629.05041122 101.41535187 C630.37924459 101.82951032 631.70803316 102.24381254 633.0367775 102.65825653 C646.40841536 106.82864947 659.80109463 110.92824395 673.20123291 115.00619507 C676.86123606 116.12080834 680.52033866 117.23833173 684.17919922 118.35668945 C695.25991087 121.74159831 706.34467632 125.11028496 717.44882202 128.41763306 C722.34575331 129.87840252 727.23884107 131.35177744 732.13140869 132.8270874 C734.44576969 133.52128653 736.76196573 134.20939932 739.08001709 134.89117432 C742.25861204 135.82644409 745.43046573 136.78185637 748.6015625 137.7421875 C749.5463446 138.01432068 750.49112671 138.28645386 751.46453857 138.5668335 C752.31751526 138.82950012 753.17049194 139.09216675 754.04931641 139.36279297 C754.79291412 139.58385712 755.53651184 139.80492126 756.30264282 140.03268433 C758 141 758 141 758.80941772 143.03982544 C758.87230988 143.68668304 758.93520203 144.33354065 759 145 C758 146 758 146 756.25604367 146.06989384 C755.47027534 146.04208049 754.68450701 146.01426714 753.87492752 145.98561096 C752.9389532 145.95316504 752.00297887 145.92071913 751.03864169 145.88729 C749.42445027 145.8204191 749.42445027 145.8204191 747.77764893 145.75219727 C746.60152519 145.70562013 745.42540144 145.65904299 744.21363759 145.61105442 C723.2871702 144.72604102 702.37894007 143.41559778 681.4701972 142.19321775 C675.44728122 141.84166521 669.42420938 141.49280915 663.40114312 141.14384344 C650.34831432 140.38747663 637.29567393 139.62789876 624.24311469 138.86689582 C612.83239764 138.20162361 601.42161943 137.53741258 590.01078033 136.87423706 C589.25116145 136.83008783 588.49154256 136.7859386 587.70890492 136.74045151 C584.6248684 136.56120712 581.54083166 136.38196649 578.45679455 136.20273223 C549.60331122 134.52583904 520.75002201 132.84562685 491.89681912 131.16391622 C466.27480237 129.67055677 440.65261153 128.18021845 415.03027344 126.69238281 C386.19626369 125.01804218 357.36236618 123.34178896 328.52864575 121.66247272 C325.45673219 121.48356549 322.38481834 121.30466311 319.31290436 121.12576294 C318.17844642 121.0596926 318.17844642 121.0596926 317.02107014 120.99228751 C305.60498585 120.327454 294.188817 119.66408621 282.7726059 119.00143433 C269.8063571 118.24880305 256.84023241 117.49407277 243.87426814 116.73655486 C237.25878006 116.35010881 230.64323595 115.96467314 224.02754211 115.58176041 C217.97598647 115.23147294 211.92459542 114.87847354 205.87332574 114.52328122 C203.68094684 114.39507604 201.48850905 114.26787357 199.29600891 114.1417588 C196.32232925 113.97056134 193.34888359 113.79574666 190.37546921 113.62001038 C189.09104469 113.54737109 189.09104469 113.54737109 187.78067219 113.47326434 C183.13729011 113.19449324 178.59515271 112.72734629 174 112 C173.95174072 112.5986084 173.90348145 113.1972168 173.85375977 113.81396484 C173.28524697 120.1904439 172.25019835 126.36301142 170.9375 132.625 C170.75123047 133.53378906 170.56496094 134.44257812 170.37304688 135.37890625 C169.91982628 137.58690402 169.46121889 139.79366399 169 142 C169.6887043 142.02863915 170.3774086 142.05727831 171.08698273 142.08678532 C183.7181305 142.79651375 196.1978786 144.7075349 208.71625948 146.46846712 C212.20307918 146.95789998 215.69065526 147.44188936 219.1781311 147.92662048 C225.99008686 148.87432429 232.80132644 149.82708063 239.61230928 150.78174894 C245.14755182 151.55752302 250.68303983 152.33152246 256.21870422 153.10428047 C257.00882834 153.21458199 257.79895246 153.3248835 258.61301973 153.43852748 C260.21842547 153.66263736 261.82383161 153.88674435 263.42923814 154.11084849 C278.44748407 156.2075305 293.46490097 158.31010188 308.48205119 160.41461528 C321.36201522 162.21946514 334.24274241 164.01878374 347.12402344 165.81420898 C362.10377636 167.90212474 377.08299911 169.99378447 392.06142855 172.09117514 C393.65822547 172.31475752 395.25502325 172.53833375 396.8518219 172.76190376 C397.63738334 172.87189176 398.42294477 172.98187976 399.2323111 173.09520073 C404.76373916 173.86939246 410.29554178 174.64087039 415.82749939 175.41126823 C422.5645322 176.3495478 429.30098918 177.29183851 436.03673679 178.23930209 C439.47203768 178.7224106 442.90756811 179.20369227 446.34381485 179.68003082 C450.06830799 180.19732204 453.79175351 180.72159087 457.51501465 181.24766541 C458.60079914 181.39679553 459.68658362 181.54592566 460.80527067 181.69957489 C465.73706011 182.40365449 470.32916031 183.17750145 475 185 C474.51809696 197.44639229 473.56374409 209.84221355 472.5 222.25 C472.43428802 223.02356842 472.36857605 223.79713684 472.3008728 224.59414673 C472.10941796 226.83903872 471.91474607 229.08362534 471.71875 231.328125 C471.54762695 233.29120605 471.54762695 233.29120605 471.37304688 235.29394531 C470.32845004 245.67154996 470.32845004 245.67154996 469 247 C454.98403419 247.79617326 440.72932394 246.59140261 426.71919632 246.07002711 C423.02194649 245.93305142 419.32458048 245.79928016 415.62722778 245.66511536 C409.23499004 245.4327495 402.84282561 245.19845013 396.45070648 244.96284485 C387.19706962 244.62180609 377.94331006 244.28419443 368.6895155 243.94746488 C353.65621945 243.40037456 338.62300208 242.85115409 323.58984375 242.30029297 C322.6920648 242.26739621 321.79428584 242.23449944 320.86930147 242.20060581 C317.23156637 242.0673067 313.59383151 241.93400122 309.95609693 241.80068782 C299.93363253 241.43340411 289.91115574 241.06645932 279.88867188 240.69970703 C278.54184232 240.6504216 278.54184232 240.6504216 277.16780409 240.60014051 C262.18223248 240.05181872 247.19660323 239.50508598 232.21093678 238.95936251 C222.98248491 238.62320946 213.75409008 238.28555927 204.52576473 237.94595015 C198.20395703 237.71338396 191.88209923 237.48221529 185.56020066 237.2521323 C181.91726549 237.11949528 178.27435749 236.98620059 174.63151169 236.85112953 C170.67537857 236.70445275 166.71913569 236.56089334 162.76287842 236.41760254 C161.62230319 236.37480211 160.48172796 236.33200168 159.30658984 236.28790426 C152.53432015 236.04574801 145.77648202 235.94917751 139 236 C138.91596766 236.60212437 138.83193533 237.20424873 138.74535656 237.82461929 C136.91562344 250.93440129 135.07929013 264.04324589 133.23635292 277.15117836 C132.34109225 283.52012932 131.44793305 289.88936027 130.55957031 296.25927734 C129.70215815 302.40670168 128.83923399 308.55332928 127.97248459 314.69944382 C127.64279172 317.04429982 127.31508507 319.38943597 126.98939896 321.73485184 C126.53285757 325.0201249 126.06926115 328.30433048 125.60400391 331.58837891 C125.40439812 333.04278885 125.40439812 333.04278885 125.20075989 334.52658081 C124.52834782 339.21999658 123.70622714 343.54498961 122 348 C115.19526673 347.42556611 108.55818346 346.47300393 101.85620117 345.17407227 C100.41765274 344.90069534 100.41765274 344.90069534 98.95004272 344.62179565 C95.81348165 344.02445337 92.67819857 343.42069376 89.54296875 342.81640625 C87.34968109 342.39640027 85.15634637 341.97663998 82.96296692 341.55711365 C78.38237957 340.67990679 73.80243003 339.79945951 69.22290039 338.91674805 C63.35534613 337.78608095 57.48619161 336.66397878 51.6165266 335.54432774 C47.0939931 334.68059648 42.57237656 333.81214157 38.05101967 332.94227409 C35.88677128 332.52652446 33.72223042 332.1122943 31.55739403 331.69961739 C28.53625128 331.12301566 25.51641229 330.54001327 22.49682617 329.95532227 C21.60478989 329.78641983 20.7127536 329.6175174 19.79368591 329.4434967 C18.55555145 329.20173706 18.55555145 329.20173706 17.29240417 328.95509338 C16.57994128 328.81812325 15.86747839 328.68115313 15.13342571 328.54003239 C12.64903885 327.91116148 10.35928429 326.99405213 8 326 C7.06443092 310.31027335 6.5863593 294.6170449 6.15209961 278.90649414 C6.07358289 276.11843109 5.99437292 273.33038782 5.91520691 270.54234314 C5.72419046 263.79985151 5.53567582 257.05729226 5.34812134 250.31470353 C5.19543724 244.82712936 5.04185955 239.33958086 4.8876667 233.85204887 C4.8655993 233.06664433 4.8435319 232.28123978 4.82079579 231.47203509 C4.77594279 229.87575682 4.73108832 228.2794786 4.6862324 226.68320041 C4.26715014 211.7653604 3.85098997 196.84743997 3.43580569 181.92949104 C3.08067617 169.17208119 2.72282569 156.41474997 2.36303711 143.6574707 C1.94371304 128.78919385 1.5262542 113.92086639 1.11159331 99.0524587 C1.06723768 97.46222802 1.0228791 95.87199741 0.97851753 94.28176689 C0.95669964 93.49965036 0.93488174 92.71753384 0.9124027 91.91171681 C0.75966338 86.44107941 0.60560509 80.97048011 0.45100212 75.4998951 C0.26220211 68.81822851 0.07542412 62.13650891 -0.10887153 55.45471651 C-0.20267325 52.05569202 -0.29762406 48.65671082 -0.39445496 45.25777054 C-0.7353915 33.27246151 -1.06174066 21.28924514 -1.10740662 9.29856873 C-1.1130872 8.4609258 -1.11876778 7.62328287 -1.1246205 6.76025683 C-1.12040442 1.12040442 -1.12040442 1.12040442 0 0 Z " fill="#00A2E8" transform="translate(186,615)"/>
<path d="M0 0 C2.33795201 0.02964289 4.63184641 0.13251905 6.96286011 0.28796387 C7.71440522 0.33555328 8.46595033 0.38314269 9.24026954 0.43217421 C20.37822845 1.17894038 31.48496353 2.31148581 42.59423828 3.39257812 C45.13705411 3.63767286 47.67989647 3.88249244 50.22276306 4.12705994 C56.37056501 4.7190788 62.51807872 5.31401216 68.66546233 5.91035736 C75.83554439 6.60578627 83.00594993 7.29785192 90.17636751 7.98981124 C102.96939426 9.22448077 115.76212364 10.46220456 128.5546875 11.70166016 C140.95257598 12.9028738 153.35067953 14.10183584 165.74902344 15.29833984 C166.51423117 15.37218661 167.2794389 15.44603337 168.06783475 15.52211791 C168.83175856 15.59584064 169.59568238 15.66956337 170.3827554 15.74552011 C184.53330516 17.11114284 198.68364988 18.47887983 212.83390103 19.8475931 C217.82713895 20.33052579 222.82043722 20.81283129 227.81375504 21.29493713 C234.529745 21.94341356 241.24555881 22.59368674 247.96125984 23.24514961 C250.42549284 23.48394482 252.88977853 23.72219693 255.35412025 23.95986748 C258.71621687 24.28421768 262.07811609 24.61054295 265.43997192 24.93737793 C266.90362645 25.07789605 266.90362645 25.07789605 268.39684975 25.22125292 C282.60946355 26.60946355 282.60946355 26.60946355 284 28 C284.11958633 29.85593227 284.16783248 31.71646059 284.18988705 33.57611084 C284.20673247 34.80984688 284.22357789 36.04358292 284.24093378 37.3147049 C284.25484567 38.71728874 284.26859812 40.11987417 284.2822113 41.52246094 C284.30017585 43.02140452 284.3184879 44.52034396 284.33711302 46.01927948 C284.38805468 50.25761701 284.43176544 54.49600416 284.47394045 58.73443699 C284.50204759 61.51790726 284.53189921 64.30135391 284.56223571 67.08480072 C285.22689004 128.39036969 285.52034547 189.70009235 285.8777121 251.00804591 C285.95210752 263.76729157 286.02753003 276.52653085 286.10360527 289.2857666 C286.10908192 290.20454469 286.11455857 291.12332278 286.12020117 292.06994262 C286.14245371 295.80301927 286.16470945 299.53609591 286.18697059 303.2691725 C286.39420745 338.0248999 286.59861128 372.78064343 286.8016859 407.53639537 C286.98065601 438.16360136 287.16221653 468.79079096 287.34594727 499.41796875 C287.55414571 534.12522101 287.76063793 568.83248279 287.96453851 603.53976059 C287.98642584 607.26458488 288.00831726 610.98940914 288.03021049 614.7142334 C288.0355966 615.63084571 288.0409827 616.54745803 288.04653201 617.49184647 C288.12134184 630.21851095 288.19714283 642.94516917 288.27371267 655.67182317 C289.07563384 788.99652554 289.07563384 788.99652554 289.11246745 839.73962498 C289.1149587 842.48092792 289.11912552 845.22222372 289.12372029 847.96352386 C289.13017356 852.06508694 289.13153583 856.16661533 289.1280715 860.2681818 C289.1274863 861.72172351 289.12850656 863.17526691 289.13126592 864.62880611 C289.13450969 866.5604983 289.1309174 868.49219853 289.12685299 870.42388916 C289.12654046 871.48721592 289.12622793 872.55054268 289.12590593 873.64609146 C289 876 289 876 288 877 C278.68978583 876.88772879 269.3570212 874.80586856 260.20703125 873.21191406 C258.53501624 872.92394783 256.86293587 872.63636085 255.1907959 872.34912109 C250.67255939 871.5718368 246.15527253 870.78915945 241.63815689 870.00539112 C236.87606098 869.17998544 232.11314952 868.35931136 227.3503418 867.5380249 C219.33721906 866.15556012 211.32467118 864.76980437 203.3125 863.38183594 C194.12087195 861.7895649 184.92854796 860.20136799 175.73578358 858.6156714 C165.87279876 856.91435676 156.01025789 855.2104801 146.14788437 853.50562572 C143.34616845 853.02144346 140.544383 852.5376653 137.74258423 852.05396271 C120.83275093 849.13368343 103.923783 846.20841047 87.04296875 843.12402344 C85.9178035 842.92079594 84.79263824 842.71756844 83.63337708 842.50818253 C82.62796371 842.32225414 81.62255035 842.13632576 80.58666992 841.94476318 C79.71733322 841.78518002 78.84799652 841.62559685 77.95231628 841.46117783 C76 841 76 841 75 840 C74.89845921 837.61259104 74.86390556 835.25421473 74.87060547 832.86611938 C74.86887864 832.0963019 74.86715181 831.32648443 74.86537266 830.53333914 C74.86092611 827.87718656 74.8640316 825.22109524 74.8671875 822.56494141 C74.86612082 820.60214595 74.86473086 818.63935066 74.86305237 816.67655563 C74.86014094 811.07658366 74.86485865 805.47663865 74.87122726 799.87667036 C74.87504393 796.18406228 74.87708802 792.49145687 74.87869263 788.7988472 C74.92652638 693.5673724 75.51443737 598.33575744 75.96354675 503.10557556 C76.02431514 490.21996107 76.08498095 477.3343461 76.14550781 464.44873047 C76.1514818 463.17706915 76.15745579 461.90540783 76.16361082 460.59521131 C76.26480117 439.04169852 76.3639984 417.48817693 76.46193409 395.93464911 C76.51627702 383.99347708 76.57157591 372.05231119 76.62960815 360.11115646 C76.95021255 294.07366663 77.05872313 228.03825721 77 162 C74.74382177 164.41055245 72.48898201 166.82235299 70.234375 169.234375 C69.59806152 169.91419434 68.96174805 170.59401367 68.30615234 171.29443359 C64.70039442 175.15339168 61.14911922 179.04395242 57.703125 183.046875 C55.50634095 185.56612276 53.25310381 188.03102996 51 190.5 C47.54424587 194.28934126 44.1347711 198.11083698 40.76953125 201.98046875 C36.46130252 206.89736556 32.05313844 211.72639032 27.671875 216.578125 C24.27655062 220.3430085 20.88941658 224.11193551 17.5625 227.9375 C13.90942044 232.13303221 10.15494451 236.23373553 6.40625 240.34375 C4.41351047 242.54352741 2.4466186 244.75955218 0.5 247 C-3.12944941 251.17729083 -6.8647902 255.25537239 -10.59375 259.34375 C-12.58648953 261.54352741 -14.5533814 263.75955218 -16.5 266 C-19.28814098 269.20899244 -22.13528185 272.35916444 -25 275.5 C-28.45575413 279.28934126 -31.8652289 283.11083698 -35.23046875 286.98046875 C-39.53869748 291.89736556 -43.94686156 296.72639032 -48.328125 301.578125 C-51.72344938 305.3430085 -55.11058342 309.11193551 -58.4375 312.9375 C-62.09057956 317.13303221 -65.84505549 321.23373553 -69.59375 325.34375 C-71.58648953 327.54352741 -73.5533814 329.75955218 -75.5 332 C-78.28814098 335.20899244 -81.13528185 338.35916444 -84 341.5 C-87.45575413 345.28934126 -90.8652289 349.11083698 -94.23046875 352.98046875 C-98.53869748 357.89736556 -102.94686156 362.72639032 -107.328125 367.578125 C-110.72344938 371.3430085 -114.11058342 375.11193551 -117.4375 378.9375 C-121.09057956 383.13303221 -124.84505549 387.23373553 -128.59375 391.34375 C-130.58648953 393.54352741 -132.5533814 395.75955218 -134.5 398 C-137.28814098 401.20899244 -140.13528185 404.35916444 -143 407.5 C-146.45575413 411.28934126 -149.8652289 415.11083698 -153.23046875 418.98046875 C-157.53869748 423.89736556 -161.94686156 428.72639032 -166.328125 433.578125 C-169.72344938 437.3430085 -173.11058342 441.11193551 -176.4375 444.9375 C-180.09057956 449.13303221 -183.84505549 453.23373553 -187.59375 457.34375 C-189.58648953 459.54352741 -191.5533814 461.75955218 -193.5 464 C-196.28814098 467.20899244 -199.13528185 470.35916444 -202 473.5 C-205.45328153 477.28662998 -208.86099051 481.1047632 -212.22265625 484.97265625 C-214.29359487 487.33489173 -216.39512848 489.66795853 -218.5 492 C-222.37699282 496.29594745 -226.20502898 500.63151246 -230 505 C-231.32 504.67 -232.64 504.34 -234 504 C-233.3587314 499.77009363 -231.91168777 496.35100368 -230.078125 492.49609375 C-229.63408577 491.55599709 -229.63408577 491.55599709 -229.18107605 490.59690857 C-228.20899356 488.54138952 -227.22941598 486.48953344 -226.25 484.4375 C-225.5658409 482.9933075 -224.88233713 481.54880438 -224.19946289 480.10400391 C-223.15290541 477.88990017 -222.10597133 475.67598448 -221.05702209 473.4630127 C-217.81271185 466.61771245 -214.61940973 459.7495451 -211.4375 452.875 C-206.81416053 442.90069046 -202.17101278 432.93580268 -197.51675415 422.97589111 C-193.81465739 415.05168541 -190.12642418 407.12119275 -186.453125 399.18359375 C-185.86383209 397.91020142 -185.86383209 397.91020142 -185.26263428 396.61108398 C-184.45685661 394.86977682 -183.65109093 393.12846411 -182.84533691 391.387146 C-176.4809609 377.63374025 -170.08934412 363.89422887 -163.625 350.1875 C-155.96275234 333.93959182 -148.38948716 317.65129723 -140.84765625 301.34716797 C-138.46177571 296.18939051 -136.07504506 291.03200716 -133.6875 285.875 C-133.28242218 285.00000854 -132.87734436 284.12501709 -132.45999146 283.22351074 C-126.88846866 271.19244612 -121.28028252 259.17941398 -115.625 247.1875 C-107.96284997 230.93954543 -100.38948749 214.65129795 -92.84765625 198.34716797 C-90.46177571 193.18939051 -88.07504506 188.03200716 -85.6875 182.875 C-85.07988327 181.56251282 -85.07988327 181.56251282 -84.45999146 180.22351074 C-78.88846866 168.19244612 -73.28028252 156.17941398 -67.625 144.1875 C-59.96284997 127.93954543 -52.38948749 111.65129795 -44.84765625 95.34716797 C-42.46177963 90.18938869 -40.07497991 85.03203732 -37.6875 79.875 C-37.28308685 79.00133789 -36.87867371 78.12767578 -36.46200562 77.22753906 C-30.52585855 64.40727157 -24.54065066 51.61109869 -18.50762939 38.83615112 C-13.65315547 28.55588372 -8.86836176 18.24750488 -4.18359375 7.88842773 C-3.77367187 6.98552002 -3.36375 6.0826123 -2.94140625 5.15234375 C-2.41075562 3.9765979 -2.41075562 3.9765979 -1.86938477 2.77709961 C-1 1 -1 1 0 0 Z M3 5 C-3.48076382 17.6090994 -9.43333359 30.45342154 -15.37477112 43.32324219 C-18.27223033 49.59672009 -21.1951092 55.85823598 -24.12078857 62.11859131 C-28.92815211 72.40578193 -33.72163234 82.69930109 -38.5 93 C-42.96778632 102.63033546 -47.44684173 112.25531548 -51.9375 121.875 C-52.37577621 122.81392593 -52.37577621 122.81392593 -52.82290649 123.77182007 C-55.98965478 130.55568651 -59.15820836 137.33870717 -62.328125 144.12109375 C-63.44805678 146.51816371 -64.56784676 148.91529992 -65.6875 151.3125 C-65.9687674 151.91467346 -66.25003479 152.51684692 -66.53982544 153.13726807 C-70.22139823 161.02131107 -73.88848184 168.91195803 -77.54296875 176.80859375 C-78.13263176 178.08272629 -78.13263176 178.08272629 -78.73420715 179.38259888 C-79.54069749 181.12534245 -80.34718037 182.86808947 -81.15365601 184.61083984 C-87.51866952 198.36477824 -93.91033501 212.10509077 -100.375 225.8125 C-108.03724766 242.06040818 -115.61051284 258.34870277 -123.15234375 274.65283203 C-125.53822429 279.81060949 -127.92495494 284.96799284 -130.3125 290.125 C-130.71757782 290.99999146 -131.12265564 291.87498291 -131.54000854 292.77648926 C-137.11153134 304.80755388 -142.71971748 316.82058602 -148.375 328.8125 C-156.03715003 345.06045457 -163.61051251 361.34870205 -171.15234375 377.65283203 C-173.53822429 382.81060949 -175.92495494 387.96799284 -178.3125 393.125 C-178.71757782 393.99999146 -179.12265564 394.87498291 -179.54000854 395.77648926 C-185.11153616 407.80756428 -190.72087576 419.82003311 -196.375 431.8125 C-197.02805428 433.19862106 -197.68104969 434.58476987 -198.33398438 435.97094727 C-198.65241302 436.64694473 -198.97084167 437.3229422 -199.29891968 438.01942444 C-199.93160632 439.3626275 -200.56427661 440.70583825 -201.19692993 442.04905701 C-201.50593231 442.70511429 -201.81493469 443.36117157 -202.13330078 444.03710938 C-202.4408429 444.6901001 -202.74838501 445.34309082 -203.06524658 446.01586914 C-203.69337764 447.34915574 -204.3217588 448.68232454 -204.95037842 450.01538086 C-206.7930208 453.92312075 -208.63090305 457.83302517 -210.46148682 461.74642944 C-211.28060673 463.49443945 -212.1048015 465.24006862 -212.92919922 466.9855957 C-215.69467534 472.90948917 -218.07824676 478.7493828 -220 485 C-214.02691684 480.17069873 -209.06406861 474.76080288 -204 469 C-202.46034854 467.28985022 -200.91871248 465.58148489 -199.375 463.875 C-196.7474712 460.95703624 -194.13920207 458.02540566 -191.5625 455.0625 C-187.91062947 450.86835635 -184.15733816 446.76905708 -180.41015625 442.66015625 C-177.82761116 439.80972966 -175.29344897 436.92174108 -172.76953125 434.01953125 C-168.46130252 429.10263444 -164.05313844 424.27360968 -159.671875 419.421875 C-156.27655062 415.6569915 -152.88941658 411.88806449 -149.5625 408.0625 C-145.90942044 403.86696779 -142.15494451 399.76626447 -138.40625 395.65625 C-136.41351047 393.45647259 -134.4466186 391.24044782 -132.5 389 C-129.71185902 385.79100756 -126.86471815 382.64083556 -124 379.5 C-120.54424587 375.71065874 -117.1347711 371.88916302 -113.76953125 368.01953125 C-109.46130252 363.10263444 -105.05313844 358.27360968 -100.671875 353.421875 C-97.27655062 349.6569915 -93.88941658 345.88806449 -90.5625 342.0625 C-86.90942044 337.86696779 -83.15494451 333.76626447 -79.40625 329.65625 C-77.41351047 327.45647259 -75.4466186 325.24044782 -73.5 323 C-69.87055059 318.82270917 -66.1352098 314.74462761 -62.40625 310.65625 C-60.41351047 308.45647259 -58.4466186 306.24044782 -56.5 304 C-53.71185902 300.79100756 -50.86471815 297.64083556 -48 294.5 C-44.54424587 290.71065874 -41.1347711 286.88916302 -37.76953125 283.01953125 C-33.46130252 278.10263444 -29.05313844 273.27360968 -24.671875 268.421875 C-21.27655062 264.6569915 -17.88941658 260.88806449 -14.5625 257.0625 C-10.90942044 252.86696779 -7.15494451 248.76626447 -3.40625 244.65625 C-1.41351047 242.45647259 0.5533814 240.24044782 2.5 238 C5.28814098 234.79100756 8.13528185 231.64083556 11 228.5 C14.45575413 224.71065874 17.8652289 220.88916302 21.23046875 217.01953125 C25.53869748 212.10263444 29.94686156 207.27360968 34.328125 202.421875 C37.72344938 198.6569915 41.11058342 194.88806449 44.4375 191.0625 C48.09057956 186.86696779 51.84505549 182.76626447 55.59375 178.65625 C58.14780312 175.83684072 60.6509054 172.97817312 63.14453125 170.10546875 C66.26765231 166.56154822 69.47181886 163.09129632 72.66796875 159.61328125 C75.04300719 157.02843944 75.04300719 157.02843944 77.11328125 154.16796875 C77.73589844 153.45253906 78.35851562 152.73710937 79 152 C79.99 152 80.98 152 82 152 C82.17161628 225.15185209 81.9119143 298.30103191 81.57911587 371.4520542 C81.562472 375.11162577 81.54588246 378.77119758 81.5293045 382.43076944 C81.3574026 420.34970094 81.17917547 458.2686023 81 496.1875 C80.95143892 506.46606418 80.90292366 516.74462857 80.85449219 527.02319336 C80.8485182 528.29089686 80.84254421 529.55860036 80.83638918 530.86471912 C80.73507184 552.3787147 80.63588568 573.89271966 80.53806591 595.40673143 C80.48380787 607.3207403 80.42855189 619.23474262 80.37039185 631.14873314 C80.03580811 699.76637298 79.94344365 768.38161193 80 837 C80.81129364 837.13882489 81.62258728 837.27764977 82.45846558 837.42068148 C98.09216187 840.0958601 113.72583884 842.77115132 129.359375 845.44726562 C140.29471936 847.31914884 151.23009799 849.19083115 162.16558409 851.06188619 C168.68733761 852.17778589 175.20901594 853.29412441 181.73065615 854.41068614 C185.75758825 855.10009976 189.7845628 855.78926357 193.81163025 856.4778862 C209.93170542 859.23445181 226.04985511 862.00032926 242.15820312 864.82470703 C244.61004346 865.25356186 247.06188662 865.68240052 249.51373291 866.11122131 C253.96508568 866.89002213 258.41520773 867.67539189 262.86468506 868.46482849 C264.81632556 868.80694009 266.76800356 869.14883791 268.71972656 869.49047852 C269.583834 869.64582376 270.44794144 869.80116901 271.33823395 869.96122169 C272.53474705 870.16907075 272.53474705 870.16907075 273.75543213 870.38111877 C274.77612982 870.56184606 274.77612982 870.56184606 275.81744766 870.7462244 C278.55359948 871.06436961 281.24750623 871.01524563 284 871 C284.13897364 820.68263726 283.9352627 770.36743507 283.64868164 720.05102539 C283.64412481 719.25022627 283.63956797 718.44942715 283.63487305 717.62436139 C283.51289429 696.21041748 283.3860467 674.79650308 283.2575883 653.38259718 C283.18092508 640.59935836 283.10525051 627.81611398 283.03021049 615.03286552 C283.02481023 614.11316324 283.01940997 613.19346096 283.01384606 612.24588891 C282.99190587 608.50927076 282.9699686 604.7726526 282.94803641 601.03603441 C282.74371654 566.22907727 282.53661492 531.42213719 282.3282242 496.61520422 C282.14451941 465.92846075 281.96339603 435.24170306 281.78442383 404.55493164 C281.58171148 369.79902134 281.37727057 335.04312186 281.17022032 300.28723711 C281.14801173 296.55847484 281.12580748 292.82971255 281.10360527 289.10095024 C281.0954075 287.72452848 281.0954075 287.72452848 281.08704412 286.32030022 C281.01112506 273.56869356 280.93621641 260.81708133 280.86208996 248.06546413 C280.73807612 226.73641348 280.61172504 205.40737804 280.48071289 184.07836914 C280.47337134 182.88205566 280.47337134 182.88205566 280.46588148 181.66157422 C280.15927679 131.77206952 279.75234931 81.8851114 279 32 C270.87684688 30.68406527 262.77857751 29.58135693 254.58627319 28.81039429 C253.51555875 28.70659663 252.44484432 28.60279897 251.34168398 28.49585593 C247.79631498 28.15306235 244.25046597 27.81553151 240.70458984 27.47802734 C238.14596578 27.23174482 235.58737282 26.98513888 233.02880859 26.73823547 C226.82885397 26.14053793 220.6285296 25.54676536 214.42806821 24.9543507 C207.20346905 24.26392972 199.97925557 23.56951337 192.75505503 22.87493606 C179.87035833 21.63625672 166.98532702 20.40109367 154.10009766 19.16796875 C141.59855636 17.97155924 129.09724637 16.77276969 116.59619141 15.57128906 C115.82468417 15.49713962 115.05317694 15.42299018 114.25829069 15.34659378 C113.48810762 15.27257102 112.71792455 15.19854826 111.92440259 15.12228239 C110.3736709 14.97324114 108.82293913 14.8242008 107.27220726 14.67516136 C106.50742763 14.60165872 105.74264799 14.52815609 104.95469322 14.4524261 C93.03022927 13.30646795 81.10556009 12.16264822 69.1808688 11.01905864 C64.86022267 10.60467817 60.53960674 10.18998447 56.21901231 9.77506541 C48.73478093 9.05634326 41.2504122 8.33907932 33.7658844 7.62344933 C31.27729757 7.38528444 28.78875728 7.14663269 26.30026627 6.9074688 C22.9149328 6.58220066 19.52943665 6.25868292 16.14389038 5.93563843 C15.1498499 5.83972896 14.15580943 5.74381949 13.13164651 5.64500368 C12.2280076 5.55915218 11.32436869 5.47330069 10.39334679 5.38484764 C9.61171461 5.30998772 8.83008242 5.2351278 8.02476442 5.1579994 C6.35409395 5.02763118 4.67574929 5 3 5 Z M-221 485 C-220 487 -220 487 -220 487 Z " fill="#000000" transform="translate(937,110)"/>
<path d="M0 0 C9.61149237 0.16524991 19.2279123 1.96915455 28.71875 3.40039062 C30.39674884 3.65049039 32.07479902 3.90024587 33.75289536 4.14969063 C37.39735272 4.69220747 41.04142966 5.23719162 44.68523407 5.78407669 C50.67063245 6.68239655 56.65683987 7.57524867 62.64312744 8.46762085 C71.44119233 9.77973131 80.23885322 11.09452225 89.03625488 12.41107178 C103.16647772 14.52560307 117.29751317 16.63467093 131.42871094 18.74267578 C133.87987164 19.10834383 136.33103207 19.47401373 138.78219223 19.83968544 C142.52595002 20.39819077 146.26970847 20.95669175 150.01347041 21.51516926 C158.40461997 22.76696312 166.79568465 24.01932469 175.18671033 25.27194865 C216.89788498 31.49850112 258.61231114 37.70304776 300.328125 43.8984375 C301.88234907 44.12926671 303.43657308 44.36009627 304.99079704 44.59092617 C323.51999677 47.34282187 342.04928334 50.09413259 360.57860899 52.84518027 C374.81835369 54.95935661 389.05806781 57.07373882 403.29775152 59.18832596 C407.6465281 59.83411099 411.99531501 60.4798265 416.34410998 61.1254877 C430.15618226 63.17617536 443.96810872 65.22782875 457.77940756 67.28371975 C463.56448596 68.1448254 469.3496221 69.00554293 475.13476562 69.86621094 C476.36233424 70.04886458 477.58990286 70.23151822 478.85467052 70.41970682 C493.46566505 72.59302585 508.07912275 74.74775939 522.69786692 76.868325 C527.46575932 77.56089387 532.23291517 78.25851613 537.00004077 78.95634139 C541.6889505 79.64185856 546.37980209 80.31267669 551.0713501 80.97994995 C563.99367889 82.8512072 576.4814025 85.27371468 589 89 C590.70310333 89.49796082 590.70310333 89.49796082 592.44061279 90.00598145 C595.45895588 90.90861801 598.46482052 91.84356186 601.46875 92.79296875 C602.56818939 93.13629745 603.66762878 93.47962616 604.80038452 93.83335876 C607.14903005 94.5670937 609.49711542 95.30262382 611.84466553 96.03985596 C617.57740489 97.83973069 623.3138768 99.62761888 629.05041122 101.41535187 C630.37924459 101.82951032 631.70803316 102.24381254 633.0367775 102.65825653 C646.40841536 106.82864947 659.80109463 110.92824395 673.20123291 115.00619507 C676.86123606 116.12080834 680.52033866 117.23833173 684.17919922 118.35668945 C695.25991087 121.74159831 706.34467632 125.11028496 717.44882202 128.41763306 C722.34575331 129.87840252 727.23884107 131.35177744 732.13140869 132.8270874 C734.44576969 133.52128653 736.76196573 134.20939932 739.08001709 134.89117432 C742.25861204 135.82644409 745.43046573 136.78185637 748.6015625 137.7421875 C749.5463446 138.01432068 750.49112671 138.28645386 751.46453857 138.5668335 C752.31751526 138.82950012 753.17049194 139.09216675 754.04931641 139.36279297 C754.79291412 139.58385712 755.53651184 139.80492126 756.30264282 140.03268433 C758 141 758 141 758.80941772 143.03982544 C758.87230988 143.68668304 758.93520203 144.33354065 759 145 C758 146 758 146 756.25604367 146.06989384 C755.47027534 146.04208049 754.68450701 146.01426714 753.87492752 145.98561096 C752.9389532 145.95316504 752.00297887 145.92071913 751.03864169 145.88729 C749.42445027 145.8204191 749.42445027 145.8204191 747.77764893 145.75219727 C746.60152519 145.70562013 745.42540144 145.65904299 744.21363759 145.61105442 C723.2871702 144.72604102 702.37894007 143.41559778 681.4701972 142.19321775 C675.44728122 141.84166521 669.42420938 141.49280915 663.40114312 141.14384344 C650.34831432 140.38747663 637.29567393 139.62789876 624.24311469 138.86689582 C612.83239764 138.20162361 601.42161943 137.53741258 590.01078033 136.87423706 C589.25116145 136.83008783 588.49154256 136.7859386 587.70890492 136.74045151 C584.6248684 136.56120712 581.54083166 136.38196649 578.45679455 136.20273223 C549.60331122 134.52583904 520.75002201 132.84562685 491.89681912 131.16391622 C466.27480237 129.67055677 440.65261153 128.18021845 415.03027344 126.69238281 C386.19626369 125.01804218 357.36236618 123.34178896 328.52864575 121.66247272 C325.45673219 121.48356549 322.38481834 121.30466311 319.31290436 121.12576294 C318.17844642 121.0596926 318.17844642 121.0596926 317.02107014 120.99228751 C305.60498585 120.327454 294.188817 119.66408621 282.7726059 119.00143433 C269.8063571 118.24880305 256.84023241 117.49407277 243.87426814 116.73655486 C237.25878006 116.35010881 230.64323595 115.96467314 224.02754211 115.58176041 C217.97598647 115.23147294 211.92459542 114.87847354 205.87332574 114.52328122 C203.68094684 114.39507604 201.48850905 114.26787357 199.29600891 114.1417588 C196.32232925 113.97056134 193.34888359 113.79574666 190.37546921 113.62001038 C189.09104469 113.54737109 189.09104469 113.54737109 187.78067219 113.47326434 C183.13729011 113.19449324 178.59515271 112.72734629 174 112 C173.95174072 112.5986084 173.90348145 113.1972168 173.85375977 113.81396484 C173.28524697 120.1904439 172.25019835 126.36301142 170.9375 132.625 C170.75123047 133.53378906 170.56496094 134.44257812 170.37304688 135.37890625 C169.91982628 137.58690402 169.46121889 139.79366399 169 142 C169.6887043 142.02863915 170.3774086 142.05727831 171.08698273 142.08678532 C183.7181305 142.79651375 196.1978786 144.7075349 208.71625948 146.46846712 C212.20307918 146.95789998 215.69065526 147.44188936 219.1781311 147.92662048 C225.99008686 148.87432429 232.80132644 149.82708063 239.61230928 150.78174894 C245.14755182 151.55752302 250.68303983 152.33152246 256.21870422 153.10428047 C257.00882834 153.21458199 257.79895246 153.3248835 258.61301973 153.43852748 C260.21842547 153.66263736 261.82383161 153.88674435 263.42923814 154.11084849 C278.44748407 156.2075305 293.46490097 158.31010188 308.48205119 160.41461528 C321.36201522 162.21946514 334.24274241 164.01878374 347.12402344 165.81420898 C362.10377636 167.90212474 377.08299911 169.99378447 392.06142855 172.09117514 C393.65822547 172.31475752 395.25502325 172.53833375 396.8518219 172.76190376 C397.63738334 172.87189176 398.42294477 172.98187976 399.2323111 173.09520073 C404.76373916 173.86939246 410.29554178 174.64087039 415.82749939 175.41126823 C422.5645322 176.3495478 429.30098918 177.29183851 436.03673679 178.23930209 C439.47203768 178.7224106 442.90756811 179.20369227 446.34381485 179.68003082 C450.06830799 180.19732204 453.79175351 180.72159087 457.51501465 181.24766541 C458.60079914 181.39679553 459.68658362 181.54592566 460.80527067 181.69957489 C465.73706011 182.40365449 470.32916031 183.17750145 475 185 C474.51809696 197.44639229 473.56374409 209.84221355 472.5 222.25 C472.43428802 223.02356842 472.36857605 223.79713684 472.3008728 224.59414673 C472.10941796 226.83903872 471.91474607 229.08362534 471.71875 231.328125 C471.54762695 233.29120605 471.54762695 233.29120605 471.37304688 235.29394531 C470.32845004 245.67154996 470.32845004 245.67154996 469 247 C454.98403419 247.79617326 440.72932394 246.59140261 426.71919632 246.07002711 C423.02194649 245.93305142 419.32458048 245.79928016 415.62722778 245.66511536 C409.23499004 245.4327495 402.84282561 245.19845013 396.45070648 244.96284485 C387.19706962 244.62180609 377.94331006 244.28419443 368.6895155 243.94746488 C353.65621945 243.40037456 338.62300208 242.85115409 323.58984375 242.30029297 C322.6920648 242.26739621 321.79428584 242.23449944 320.86930147 242.20060581 C317.23156637 242.0673067 313.59383151 241.93400122 309.95609693 241.80068782 C299.93363253 241.43340411 289.91115574 241.06645932 279.88867188 240.69970703 C278.54184232 240.6504216 278.54184232 240.6504216 277.16780409 240.60014051 C262.18223248 240.05181872 247.19660323 239.50508598 232.21093678 238.95936251 C222.98248491 238.62320946 213.75409008 238.28555927 204.52576473 237.94595015 C198.20395703 237.71338396 191.88209923 237.48221529 185.56020066 237.2521323 C181.91726549 237.11949528 178.27435749 236.98620059 174.63151169 236.85112953 C170.67537857 236.70445275 166.71913569 236.56089334 162.76287842 236.41760254 C161.62230319 236.37480211 160.48172796 236.33200168 159.30658984 236.28790426 C152.53432015 236.04574801 145.77648202 235.94917751 139 236 C138.91596766 236.60212437 138.83193533 237.20424873 138.74535656 237.82461929 C136.91562344 250.93440129 135.07929013 264.04324589 133.23635292 277.15117836 C132.34109225 283.52012932 131.44793305 289.88936027 130.55957031 296.25927734 C129.70215815 302.40670168 128.83923399 308.55332928 127.97248459 314.69944382 C127.64279172 317.04429982 127.31508507 319.38943597 126.98939896 321.73485184 C126.53285757 325.0201249 126.06926115 328.30433048 125.60400391 331.58837891 C125.40439812 333.04278885 125.40439812 333.04278885 125.20075989 334.52658081 C124.52834782 339.21999658 123.70622714 343.54498961 122 348 C115.19526673 347.42556611 108.55818346 346.47300393 101.85620117 345.17407227 C100.41765274 344.90069534 100.41765274 344.90069534 98.95004272 344.62179565 C95.81348165 344.02445337 92.67819857 343.42069376 89.54296875 342.81640625 C87.34968109 342.39640027 85.15634637 341.97663998 82.96296692 341.55711365 C78.38237957 340.67990679 73.80243003 339.79945951 69.22290039 338.91674805 C63.35534613 337.78608095 57.48619161 336.66397878 51.6165266 335.54432774 C47.0939931 334.68059648 42.57237656 333.81214157 38.05101967 332.94227409 C35.88677128 332.52652446 33.72223042 332.1122943 31.55739403 331.69961739 C28.53625128 331.12301566 25.51641229 330.54001327 22.49682617 329.95532227 C21.60478989 329.78641983 20.7127536 329.6175174 19.79368591 329.4434967 C18.55555145 329.20173706 18.55555145 329.20173706 17.29240417 328.95509338 C16.57994128 328.81812325 15.86747839 328.68115313 15.13342571 328.54003239 C12.64903885 327.91116148 10.35928429 326.99405213 8 326 C7.06443092 310.31027335 6.5863593 294.6170449 6.15209961 278.90649414 C6.07358289 276.11843109 5.99437292 273.33038782 5.91520691 270.54234314 C5.72419046 263.79985151 5.53567582 257.05729226 5.34812134 250.31470353 C5.19543724 244.82712936 5.04185955 239.33958086 4.8876667 233.85204887 C4.8655993 233.06664433 4.8435319 232.28123978 4.82079579 231.47203509 C4.77594279 229.87575682 4.73108832 228.2794786 4.6862324 226.68320041 C4.26715014 211.7653604 3.85098997 196.84743997 3.43580569 181.92949104 C3.08067617 169.17208119 2.72282569 156.41474997 2.36303711 143.6574707 C1.94371304 128.78919385 1.5262542 113.92086639 1.11159331 99.0524587 C1.06723768 97.46222802 1.0228791 95.87199741 0.97851753 94.28176689 C0.95669964 93.49965036 0.93488174 92.71753384 0.9124027 91.91171681 C0.75966338 86.44107941 0.60560509 80.97048011 0.45100212 75.4998951 C0.26220211 68.81822851 0.07542412 62.13650891 -0.10887153 55.45471651 C-0.20267325 52.05569202 -0.29762406 48.65671082 -0.39445496 45.25777054 C-0.7353915 33.27246151 -1.06174066 21.28924514 -1.10740662 9.29856873 C-1.1130872 8.4609258 -1.11876778 7.62328287 -1.1246205 6.76025683 C-1.12040442 1.12040442 -1.12040442 1.12040442 0 0 Z M4 5 C3.85093061 18.59739401 4.27842871 32.17956332 4.66168487 45.77027762 C4.75932134 49.24883874 4.85453811 52.72746628 4.9500885 56.20608521 C5.13713344 63.00136245 5.32642874 69.79657516 5.51658671 76.59176593 C5.67125764 82.11995088 5.82515595 87.64815683 5.97851753 93.17637825 C6.0004317 93.96625501 6.02234587 94.75613177 6.0449241 95.56994419 C6.08945532 97.17508845 6.13398559 98.78023274 6.17851491 100.38537706 C6.59520375 115.40191575 7.01454706 130.41837943 7.43474198 145.43482036 C7.81821525 159.14172143 8.19851497 172.84870837 8.57729047 186.55573999 C8.9672883 200.66794639 9.35934717 214.78009413 9.75364786 228.89218098 C9.97456275 236.79994318 10.19470013 244.70772508 10.41270256 252.61556816 C10.59827861 259.34624164 10.78583325 266.07685657 10.97585695 272.807406 C11.07255377 276.23418182 11.16840093 279.66097528 11.26179123 283.08784294 C11.62655758 296.40897556 12.00279475 309.70878043 13 323 C25.93351841 325.48378366 38.86816033 327.96162149 51.80426979 330.43187714 C57.81099573 331.57910398 63.81731557 332.72837446 69.82275391 333.88232422 C75.61843254 334.99589044 81.41511624 336.10407669 87.21253586 337.20854187 C89.42407238 337.63084 91.63524003 338.05507468 93.84602737 338.48127747 C96.94278374 339.07793722 100.0407806 339.6676956 103.13916016 340.25585938 C104.50941345 340.52235542 104.50941345 340.52235542 105.90734863 340.79423523 C110.33922844 341.62811824 114.46533377 342.20737467 119 342 C119.07638419 341.45831334 119.15276838 340.91662668 119.23146725 340.35852528 C121.09114763 327.17112012 122.95243836 313.98394313 124.81545925 300.79700947 C125.71635719 294.41987452 126.61672103 288.04266512 127.51586914 281.6652832 C128.38345503 275.51190404 129.2524375 269.35872358 130.12239265 263.20567894 C130.45421255 260.85699691 130.78552737 258.50824347 131.1163311 256.15941811 C131.57939489 252.8721207 132.04424641 249.58508075 132.50952148 246.2980957 C132.64618729 245.3248938 132.78285309 244.35169189 132.92366028 243.34899902 C133.05124725 242.45022537 133.17883423 241.55145172 133.31028748 240.6254425 C133.41998084 239.84837102 133.52967421 239.07129953 133.64269161 238.27068043 C134.02659971 235.83095988 134.50022612 233.41841105 135 231 C149.10452475 230.77711205 163.18882977 231.40555154 177.28080368 231.92997289 C180.97805351 232.06694858 184.67541952 232.20071984 188.37277222 232.33488464 C194.76500996 232.5672505 201.15717439 232.80154987 207.54929352 233.03715515 C216.80293038 233.37819391 226.05668994 233.71580557 235.3104845 234.05253512 C250.34378055 234.59962544 265.37699792 235.14884591 280.41015625 235.69970703 C281.3079352 235.73260379 282.20571416 235.76550056 283.13069853 235.79939419 C286.76843363 235.9326933 290.40616849 236.06599878 294.04390307 236.19931218 C304.06636747 236.56659589 314.08884426 236.93354068 324.11132812 237.30029297 C325.45815768 237.3495784 325.45815768 237.3495784 326.83219591 237.39985949 C341.81776752 237.94818128 356.80339677 238.49491402 371.78906322 239.04063749 C381.01751509 239.37679054 390.24590992 239.71444073 399.47423527 240.05404985 C405.79604297 240.28661604 412.11790077 240.51778471 418.43979934 240.7478677 C422.08273451 240.88050472 425.72564251 241.01379941 429.36848831 241.14887047 C433.32462143 241.29554725 437.28086431 241.43910666 441.23712158 241.58239746 C442.37769681 241.62519789 443.51827204 241.66799832 444.69341016 241.71209574 C451.46567985 241.95425199 458.22351798 242.05082249 465 242 C465.88870421 239.33388738 466.24648737 237.28468044 466.49658203 234.51611328 C466.5798172 233.61152374 466.66305237 232.7069342 466.74880981 231.77493286 C466.8342807 230.79990814 466.91975159 229.82488342 467.0078125 228.8203125 C467.09755341 227.81539764 467.18729431 226.81048279 467.27975464 225.77511597 C467.46822245 223.64858769 467.65470406 221.52188259 467.83935547 219.39501953 C468.12333115 216.14410478 468.41877741 212.89436429 468.71484375 209.64453125 C468.89653848 207.57818688 469.0775506 205.51178236 469.2578125 203.4453125 C469.34733185 202.47433624 469.4368512 201.50335999 469.52908325 200.50296021 C469.6060141 199.59206635 469.68294495 198.68117249 469.76220703 197.74267578 C469.867603 196.5471257 469.867603 196.5471257 469.97512817 195.3274231 C470.00258267 192.75832213 469.53393916 190.50656516 469 188 C468.41951719 187.91899606 467.83903439 187.83799213 467.24096119 187.75453353 C432.72663147 182.93815668 398.21256887 178.11987029 363.69884516 173.29915278 C359.54141952 172.71846443 355.38399169 172.1377918 351.2265625 171.55712891 C350.39900105 171.44154417 349.5714396 171.32595944 348.71880053 171.20687214 C335.37342875 169.34297463 322.02788006 167.48034688 308.68226387 165.61820027 C294.95681956 163.70302605 281.23157016 161.78645969 267.50649536 159.86863923 C259.05855901 158.68824295 250.61047803 157.50889299 242.16220014 156.33094367 C236.34451334 155.51967273 230.5270188 154.70703227 224.70966406 153.89338365 C221.36892874 153.42616829 218.02809455 152.95969617 214.68708229 152.49446297 C197.76839715 150.13809483 180.87587309 147.64616992 164 145 C164.1511591 143.57465632 164.30439129 142.14953242 164.45848083 140.72450256 C164.58613909 139.53404375 164.58613909 139.53404375 164.7163763 138.31953526 C165.10179444 135.16750328 165.73219796 132.09739231 166.41015625 128.99609375 C166.81137695 127.14467773 166.81137695 127.14467773 167.22070312 125.25585938 C167.49849609 123.99580078 167.77628906 122.73574219 168.0625 121.4375 C168.347422 120.12964802 168.63193031 118.82170585 168.91601562 117.51367188 C169.60662782 114.34153788 170.3021744 111.17055229 171 108 C195.69396827 108.73265982 220.3459282 110.28971377 245.00582445 111.7368983 C250.84595992 112.07911279 256.68623788 112.41887269 262.52651255 112.75870195 C274.4529855 113.45274723 286.37932195 114.14911115 298.30558205 114.84680367 C310.0986867 115.53669017 321.89186095 116.22536913 333.68512535 116.91251945 C334.42153533 116.95542747 335.15794531 116.99833548 335.91667074 117.04254373 C339.65742669 117.26049617 343.39818406 117.4784243 347.13894209 117.69634103 C373.5623859 119.23565448 399.98570399 120.77711582 426.40893555 122.32006836 C428.00285785 122.41314268 429.59678015 122.50621698 431.19070246 122.59929126 C433.58549077 122.73913114 435.98027907 122.87897117 438.37506737 123.01881128 C440.77417413 123.15890346 443.17328091 123.29899519 445.5723877 123.43908691 C446.36490338 123.48536483 447.15741907 123.53164275 447.97395038 123.57932303 C466.42555943 124.65677263 484.87720172 125.73365233 503.32885742 126.81030273 C504.12035423 126.85648694 504.91185103 126.90267115 505.72733259 126.95025488 C523.79401611 128.00444814 541.86071857 129.058316 559.92746258 130.11147213 C560.68628876 130.15570632 561.44511495 130.19994052 562.22693586 130.24551514 C569.80100752 130.68702593 577.37508129 131.1285006 584.94915879 131.56991112 C601.21587551 132.51793736 617.48253806 133.46688084 633.74909535 134.41763886 C645.58878581 135.10964767 657.42853189 135.80069723 669.26833496 136.49077673 C675.68319835 136.86470683 682.09803194 137.23913152 688.51279259 137.61482048 C694.37840271 137.95834268 700.24408812 138.30054751 706.10983738 138.64168548 C708.23702498 138.76563917 710.3641836 138.89009133 712.49131069 139.01507921 C715.37190739 139.18427201 718.25260175 139.35169209 721.13332844 139.51865482 C721.96787746 139.56810368 722.80242647 139.61755255 723.66226485 139.66849986 C727.447679 139.88609229 731.20621637 140.05865481 735 140 C732.40983014 138.27322009 730.80778142 137.50581947 727.9152832 136.64086914 C727.07503098 136.38678787 726.23477875 136.1327066 725.36906433 135.8709259 C724.43903091 135.59512192 723.5089975 135.31931793 722.55078125 135.03515625 C721.55093704 134.73393356 720.55109283 134.43271088 719.52095032 134.12236023 C717.30286697 133.45451471 715.08411545 132.78888554 712.86480713 132.12512207 C707.29792322 130.45986806 701.73498977 128.78152784 696.17222595 127.10257339 C694.80198966 126.68905219 693.43169849 126.2757128 692.06135559 125.86254501 C679.13839057 121.96548617 666.23332627 118.01111178 653.33203125 114.04296875 C652.35631731 113.74296022 651.38060337 113.4429517 650.37532234 113.13385201 C641.50938161 110.4077809 632.64374568 107.6807236 623.7796936 104.94851685 C619.08588774 103.50176149 614.39137264 102.05732831 609.6964016 100.6143589 C607.96230704 100.08089504 606.22847991 99.54656085 604.49495888 99.01123619 C602.07497441 98.26398999 599.65404158 97.51988752 597.23291016 96.77636719 C596.56262441 96.56854646 595.89233866 96.36072573 595.20174122 96.1466074 C592.80622632 95.41321549 590.4035488 94.70665583 588 94 C587.3942621 93.8163654 586.78852421 93.6327308 586.16443062 93.44353151 C574.14905109 89.81739375 562.22695706 87.52367413 549.81542969 85.74316406 C547.84301924 85.45142982 545.87075912 85.15867772 543.89863586 84.86500835 C538.53709662 84.06951888 533.17358714 83.28812844 527.80962658 82.5091579 C522.02094027 81.66585311 516.23425619 80.80901232 510.44732666 79.95375061 C500.45242619 78.47835653 490.45637089 77.01101875 480.45947266 75.54922485 C465.27720483 73.32906333 450.0970962 71.09438081 434.91744769 68.85640188 C428.83184643 67.95923511 422.74618464 67.06247911 416.66052246 66.16572571 C415.98641419 66.0663871 415.31230593 65.96704849 414.61777014 65.86469962 C404.27498984 64.34060984 393.93184552 62.81900727 383.58850098 61.29875183 C346.64272575 55.86813465 309.70188796 50.4051777 272.765625 44.91015625 C271.53733695 44.7274362 270.3090489 44.54471616 269.04354 44.35645914 C254.50927719 42.19428189 239.97520587 40.03081945 225.44120717 37.86686766 C205.61728677 34.91543205 185.79283234 31.96758563 165.96833706 29.02001429 C162.83937279 28.55477689 159.71041526 28.08949429 156.58145905 27.62420273 C105.72410183 20.06169857 54.86220892 12.52979363 4 5 Z " fill="#000000" transform="translate(186,615)"/>
<path d="M0 0 C15.29748995 0.64636773 30.55428826 1.62278864 45.82324219 2.75 C48.23533528 2.92608585 50.64744517 3.10194168 53.05957031 3.27758789 C58.87319513 3.70154262 64.68663699 4.12793754 70.49999365 4.55555248 C77.28678317 5.05467177 84.07377523 5.55101078 90.860773 6.04728889 C102.97147307 6.93294896 115.08198026 7.82121925 127.19238281 8.7109375 C138.91878992 9.5724435 150.6453481 10.43185623 162.37207031 11.2890625 C175.18987001 12.22602831 188.00759153 13.16405024 200.82517362 14.10398865 C202.19246244 14.20425418 203.55975127 14.30451968 204.9270401 14.40478516 C205.59955008 14.45410344 206.27206005 14.50342173 206.96494912 14.5542345 C211.68729295 14.90048448 216.40968855 15.24602272 221.13210297 15.59130859 C227.48533045 16.05595204 233.83843058 16.52230054 240.19143677 16.98995972 C242.51938892 17.16105973 244.84738322 17.33158737 247.17542267 17.50149536 C250.35703623 17.73379928 253.53848872 17.96819993 256.71990967 18.203125 C257.63654286 18.26956711 258.55317605 18.33600922 259.49758601 18.40446472 C265.01608772 18.8147294 270.50342917 19.35851353 276 20 C278.52910273 27.07915236 280.22807332 34.13953121 281.74194336 41.49707031 C282.12950145 43.34778767 282.12950145 43.34778767 282.52488899 45.23589325 C283.23614131 48.63287481 283.9407891 52.03119673 284.64435124 55.4297781 C285.40362973 59.09132921 286.1692592 62.75155237 286.93418884 66.41192627 C288.25261503 72.72486179 289.56735721 79.03855495 290.87957764 85.3527832 C292.94491186 95.29038892 295.01783501 105.22640313 297.09228516 115.16210938 C297.62061865 117.69282388 298.14893922 120.22354109 298.67725587 122.75425911 C299.03188537 124.45298518 299.38652429 126.15170929 299.74117255 127.85043144 C300.99890279 133.87514563 302.25565844 139.90006264 303.51208496 145.92504883 C310.46460859 179.26138556 317.46818883 212.5869102 324.48704177 245.90933681 C325.71955571 251.76109669 326.95103756 257.6130734 328.18226153 263.46510482 C329.47587713 269.61351524 330.77031976 275.76175121 332.06515694 281.90990448 C332.59449167 284.42371669 333.12360373 286.9375758 333.65247917 289.45148468 C334.37029406 292.86299241 335.08906143 296.27429803 335.80810547 299.68554688 C336.12249526 301.18117598 336.12249526 301.18117598 336.44323635 302.70701981 C336.63533719 303.61738369 336.82743803 304.52774757 337.02536011 305.46569824 C337.19065657 306.25057365 337.35595303 307.03544907 337.52625847 307.84410858 C337.97958106 309.907078 338.47660934 311.95380026 339 314 C347.68898352 299.5610989 356.32945479 285.09450832 364.92544556 270.60009766 C370.04788518 261.96333634 375.18675565 253.3372067 380.36401367 244.7331543 C385.10733247 236.84069671 389.8024373 228.91973734 394.5 221 C400.09717795 211.56357901 405.70654263 202.13525866 411.36328125 192.734375 C416.10684154 184.84150884 420.80219518 176.92014554 425.5 169 C431.09717795 159.56357901 436.70654263 150.13525866 442.36328125 140.734375 C447.10684154 132.84150884 451.80219518 124.92014554 456.5 117 C462.09717795 107.56357901 467.70654263 98.13525866 473.36328125 88.734375 C478.10684206 80.84150798 482.80210543 72.92009312 487.5 65 C499.64006358 44.53470431 499.64006358 44.53470431 504.83789062 35.93237305 C507.3512113 31.77068833 509.8228775 27.58929607 512.25390625 23.37890625 C512.79668213 22.44852539 513.33945801 21.51814453 513.89868164 20.55957031 C514.94073435 18.77192326 515.97302641 16.97853874 516.99389648 15.17871094 C517.45997314 14.38368164 517.9260498 13.58865234 518.40625 12.76953125 C519.01436523 11.71149292 519.01436523 11.71149292 519.63476562 10.63208008 C521.3118754 8.62716612 522.43036421 8.2730073 525 8 C525.33 8.33 525.66 8.66 526 9 C525.78506389 18.43847995 524.49181155 27.85364508 523.27903748 37.20570374 C523.10363084 38.5805875 522.92856649 39.95551498 522.75380951 41.33048147 C522.27736356 45.07132873 521.79612948 48.81154604 521.31404459 52.55167019 C520.79216701 56.60734133 520.27483632 60.66359284 519.75692749 64.71977234 C518.85699384 71.76301832 517.9542162 78.80589503 517.0494976 85.84852791 C515.72398591 96.16682817 514.40289689 106.48569113 513.08278442 116.80468338 C510.91736643 133.73028724 508.74847477 150.6554441 506.57739258 167.58032227 C504.50924552 183.70282094 502.44258554 199.82550891 500.37817383 215.94848633 C500.25292986 216.92662374 500.1276859 217.90476114 499.99864666 218.91253908 C499.24250061 224.81801568 498.4864105 230.72349944 497.73033974 236.62898567 C496.60300226 245.43433997 495.4756076 254.23968694 494.34805298 263.04501343 C494.1631314 264.48911359 494.1631314 264.48911359 493.97447403 265.96238749 C492.24507991 279.4670606 490.51383186 292.971495 488.78110506 306.47574089 C487.69226729 314.9618313 486.60366985 323.44795254 485.51513672 331.93408203 C485.39736837 332.85214859 485.27960002 333.77021515 485.15826294 334.71610191 C482.06298668 358.84648711 478.98159164 382.9785734 475.92256923 407.11358197 C475.2447622 412.46099717 474.56598754 417.8082887 473.88649464 423.15548992 C473.79359399 423.886611 473.70069334 424.61773207 473.60497752 425.37100833 C473.23752859 428.26268307 472.87005701 431.15435491 472.50246135 434.04601099 C471.546651 441.5651099 470.59286473 449.08445023 469.64632988 456.60472298 C468.86911019 462.77917811 468.08663395 468.95294241 467.29989314 475.12619138 C467.01826377 477.34444658 466.7387471 479.56297123 466.46153569 481.78178287 C466.08786037 484.77102368 465.70680791 487.75923333 465.3238678 490.74729919 C465.21820714 491.60764127 465.11254648 492.46798335 465.00368398 493.3543964 C464.90023989 494.14956526 464.79679579 494.94473411 464.69021702 495.76399899 C464.60451216 496.44265859 464.51880731 497.12131819 464.43050534 497.82054323 C463.87317708 500.64204796 462.9486105 503.28833589 462 506 C453.4436529 505.41639931 444.96620478 504.57161243 436.46585083 503.44003296 C435.27167282 503.28392284 434.07749481 503.12781272 432.84712958 502.96697199 C429.56560674 502.53728734 426.28451768 502.10452519 423.00358114 501.67040062 C419.43772382 501.19936518 415.8713334 500.73239769 412.30500984 500.26490784 C406.10073725 499.4510656 399.89680374 498.63467897 393.69309235 497.81657028 C384.58715639 496.61574647 375.48069408 495.41895252 366.37411338 494.22302921 C350.40321581 492.12552701 334.43282017 490.02422436 318.46265274 487.92117091 C304.6795377 486.10612746 290.89627813 484.29218703 277.112854 482.47949219 C275.75078332 482.30036119 275.75078332 482.30036119 274.36119606 482.11761138 C268.859946 481.39412924 263.35869069 480.67068701 257.85743406 479.94725484 C249.63245644 478.86563502 241.40748997 477.78393033 233.18252563 476.70220947 C232.28148093 476.58370873 231.38043623 476.46520799 230.45208715 476.34311631 C217.75288132 474.67296706 205.05376641 473.00212802 192.35471015 471.33084193 C153.45899408 466.21198395 114.56188701 461.10425528 75.6606636 456.02739334 C69.20689303 455.18507357 62.75325218 454.34176337 56.2996521 453.49813843 C55.28296916 453.36524426 54.26628622 453.23235009 53.2187947 453.09542882 C49.25474039 452.57726631 45.29068791 452.05908981 41.32664752 451.54082084 C30.32454541 450.1024348 19.32202552 448.66734938 8.31875372 447.23793781 C1.67540329 446.37461336 -4.96740419 445.50719835 -11.60976362 444.63628209 C-15.99923262 444.06093174 -20.38926836 443.49025385 -24.7798866 442.92374384 C-27.96472863 442.51125731 -31.14855109 442.09104327 -34.33251953 441.671875 C-36.00176137 441.45888795 -36.00176137 441.45888795 -37.70472527 441.24159813 C-38.72224436 441.10611879 -39.73976345 440.97063946 -40.78811646 440.83105469 C-41.65747393 440.71783875 -42.5268314 440.6046228 -43.42253304 440.48797607 C-46.39389563 439.92542615 -49.14090944 438.97639383 -52 438 C-51.35597468 427.4594013 -50.27238062 417.01608562 -49.03297424 406.53260803 C-48.83115584 404.80550336 -48.62961175 403.07836661 -48.42831558 401.351201 C-47.87860546 396.64155333 -47.32497491 391.93237386 -46.77064598 387.22326791 C-46.17189596 382.13089181 -45.57680019 377.03808844 -44.98120117 371.94534302 C-43.8157081 361.98498294 -42.64672376 352.02503566 -41.47635908 342.06524695 C-40.52532189 333.9717391 -39.57533387 325.87810877 -38.62608147 317.7843914 C-35.9334165 294.82648226 -33.2382218 271.8688723 -30.53958321 248.91166455 C-30.32167531 247.05793088 -30.32167531 247.05793088 -30.09936523 245.16674805 C-29.95391523 243.92941488 -29.80846523 242.69208172 -29.65860765 241.41725361 C-27.29808939 221.33517928 -24.94353813 201.25241046 -22.59170509 181.16931731 C-20.17557077 160.53768711 -17.75512617 139.90656661 -15.33012146 119.27597708 C-13.96919848 107.6972665 -12.61004554 96.11835453 -11.25549507 84.53889656 C-10.10314062 74.68824915 -8.94677367 64.83808311 -7.78516979 54.98852194 C-7.1926275 49.96320927 -6.60196863 44.93769398 -6.01634789 39.9115696 C-5.48033574 35.31162905 -4.93897588 30.71235074 -4.39333271 26.11354297 C-4.19681781 24.44921404 -4.00226765 22.78465171 -3.80987401 21.11984134 C-3.54812636 18.8574475 -3.27923164 16.59601219 -3.0085535 14.33467197 C-2.86100465 13.07817201 -2.71345579 11.82167205 -2.56143576 10.52709633 C-1.97899589 6.86804632 -1.08910801 3.53546927 0 0 Z M4 5 C2.65785471 7.68429057 2.53860737 10.11731957 2.18813705 13.10464287 C2.11250438 13.74041543 2.0368717 14.376188 1.95894712 15.0312264 C1.70404094 17.18193918 1.45456455 19.33324795 1.20501709 21.48458862 C1.02242345 23.03479275 0.83949889 24.58495793 0.65627027 26.13508713 C0.15170865 30.41202945 -0.34811743 34.68951416 -0.84720492 38.96709824 C-1.38581216 43.57631069 -1.92875644 48.1850124 -2.47117615 52.79377747 C-3.53528426 61.84106422 -4.59537539 70.88881742 -5.65418157 79.93672602 C-6.89124017 90.5063956 -8.13242875 101.07557895 -9.37383255 111.64473893 C-11.59452527 130.55251939 -13.81172212 149.46070812 -16.02685547 168.36914062 C-18.16629921 186.6314385 -20.30772832 204.89350189 -22.45166016 223.15527344 C-22.58298522 224.27388956 -22.71431028 225.39250568 -22.84961489 226.54501925 C-23.37782929 231.04426525 -23.90604843 235.54351069 -24.43427612 240.04275512 C-26.61153078 258.58825567 -28.78721855 277.13394009 -30.96264172 295.67965555 C-31.45476019 299.87500561 -31.94693286 304.0703493 -32.43915272 308.26568747 C-33.73681922 319.32635913 -35.03393605 330.38709488 -36.32964692 341.44799583 C-36.86457361 346.01440499 -37.39970285 350.58079008 -37.93553734 355.14709282 C-38.99613747 364.18672745 -40.05294772 373.2267828 -41.10122952 382.26785497 C-41.63199002 386.84301648 -42.16603785 391.41777149 -42.70394802 395.99209833 C-43.30944845 401.14201081 -43.90948015 406.29253594 -44.50607142 411.44348778 C-44.7377477 413.43551791 -44.97133668 415.42732657 -45.20689049 417.41890191 C-45.53251131 420.174662 -45.85134284 422.93112642 -46.16852951 425.68786812 C-46.26817834 426.51765374 -46.36782718 427.34743936 -46.47049567 428.20237 C-46.68882756 430.13063546 -46.85078272 432.06515874 -47 434 C-45.40921432 435.59078568 -43.59287123 435.42369283 -41.39056969 435.7119379 C-40.3867254 435.84543373 -39.38288112 435.97892955 -38.34861732 436.11647069 C-37.23127715 436.26060388 -36.11393699 436.40473706 -34.96273804 436.55323792 C-33.78446827 436.70864158 -32.60619851 436.86404525 -31.3922236 437.02415812 C-28.09976943 437.45751941 -24.80685081 437.88701099 -21.51368836 438.31493638 C-17.95472237 438.77834398 -14.39640297 439.24666683 -10.83800316 439.71439838 C-4.62748081 440.53004408 1.58344895 441.34252696 7.79465485 442.15295029 C16.91749536 443.34329371 26.03969051 444.53852499 35.16174644 445.73486429 C51.1709789 447.83429698 67.18081861 449.92906754 83.19093102 452.02177805 C97.02244075 453.8297327 110.85376261 455.63911561 124.68487549 457.45010376 C126.04940257 457.62876795 126.04940257 457.62876795 127.44149585 457.81104151 C132.95385727 458.53281354 138.46621159 459.25463984 143.97856393 459.97648115 C152.23123376 461.05715452 160.48391745 462.13772207 168.73660278 463.21827698 C169.64153293 463.33676513 170.54646309 463.45525328 171.47881536 463.57733198 C184.25830642 465.2506137 197.03790455 466.92307564 209.81757341 468.59499883 C249.55874857 473.79431747 289.29808665 479.00696937 329.03293228 484.2544651 C335.7618321 485.14305436 342.49086625 486.03062282 349.21994019 486.91789246 C351.35314496 487.19918981 353.48634974 487.48048718 355.61955452 487.76178455 C358.71263137 488.16964908 361.8057098 488.57750163 364.89879394 488.98531091 C376.50564223 490.51570259 388.1120168 492.04958335 399.71764994 493.58916378 C406.75518537 494.52243304 413.79327245 495.45145549 420.83184767 496.37685013 C425.51210783 496.99237514 430.19167513 497.61281654 434.87071812 498.23752338 C438.2639121 498.6889546 441.65813836 499.13239635 445.05224609 499.5769043 C446.2542547 499.73903192 447.45626331 499.90115953 448.69469643 500.06820011 C449.77403639 500.20796992 450.85337635 500.34773973 451.96542358 500.491745 C452.89746298 500.61510066 453.82950237 500.73845633 454.78978539 500.86555004 C457.04190198 501.18767281 457.04190198 501.18767281 459 500 C459.61948686 497.37724012 459.61948686 497.37724012 459.98062038 494.1201067 C460.14850518 492.83352785 460.31638997 491.546949 460.48936218 490.22138292 C460.66864363 488.77438388 460.84775611 487.3273639 461.02671814 485.88032532 C461.22193242 484.3567294 461.41795581 482.83323697 461.61472327 481.30984086 C462.15595333 477.10095613 462.68560637 472.89068115 463.21348822 468.68010437 C463.78439791 464.14248182 464.36589678 459.60621561 464.94613647 455.06977844 C465.95339827 447.18315875 466.95386802 439.29570084 467.94984245 431.40764809 C469.40171372 419.90909823 470.86389162 408.41187715 472.32852358 396.91494658 C474.72009839 378.13960091 477.10346301 359.36322243 479.48168945 340.58618164 C481.76541721 322.55539444 484.05260241 304.52505215 486.3449707 286.49536133 C486.4845886 285.39724242 486.62420651 284.29912352 486.76805525 283.16772828 C487.47005994 277.64654346 488.17214623 272.12536902 488.87428272 266.60420096 C490.26420631 255.67466594 491.65376288 244.74508427 493.04310608 233.81547546 C493.24659862 232.21467387 493.24659862 232.21467387 493.45420212 230.58153286 C495.29130469 216.12902166 497.12630038 201.67624454 498.95905337 187.22318112 C499.33319488 184.27275547 499.70739035 181.32233666 500.08160037 178.37191969 C501.54190566 166.85826884 501.54190566 166.85826884 503.00107849 155.34447443 C505.57382007 135.03569902 508.15887273 114.72862491 510.77756687 94.42571802 C511.17156301 91.37001721 511.56508244 88.31425542 511.95841438 85.25846905 C512.08611724 84.26640535 512.2138201 83.27434165 512.34539274 82.25221542 C512.60023142 80.27242811 512.85505074 78.2926383 513.10985022 76.31284594 C513.84733444 70.58534841 514.58830896 64.85831603 515.33193603 59.13161299 C515.78644695 55.62561433 516.23788537 52.11922498 516.68851094 48.61272503 C516.89747603 46.99201722 517.10777163 45.37148031 517.31950088 43.75113128 C517.60857057 41.53783971 517.89296923 39.32399489 518.17626286 37.1099577 C518.41634668 35.25615192 518.41634668 35.25615192 518.66128069 33.36489552 C518.97840886 30.21449009 519.06372755 27.16341486 519 24 C515.92917058 27.66458884 513.38574517 31.49050783 510.98046875 35.609375 C510.41789116 36.56163971 510.41789116 36.56163971 509.84394836 37.53314209 C509.04011264 38.89471714 508.23801177 40.25731765 507.4375 41.62084961 C505.73475743 44.52116562 504.02370444 47.41654794 502.31314087 50.31225586 C501.4445235 51.7828661 500.57634002 53.25373271 499.70858765 54.72485352 C496.00447727 61.00261794 492.25978906 67.25542675 488.5 73.5 C484.4616445 80.21341657 480.43884378 86.93561856 476.4453125 93.67578125 C475.85636703 94.66977684 475.85636703 94.66977684 475.25552368 95.68385315 C474.45106197 97.04177184 473.64662904 98.39970758 472.84222412 99.75765991 C472.44054016 100.43575714 472.0388562 101.11385437 471.625 101.8125 C471.22347717 102.49035553 470.82195435 103.16821106 470.40826416 103.86660767 C464.79148526 113.34472829 459.11290732 122.78228238 453.375 132.1875 C446.97861866 142.67484464 440.72030137 153.23639078 434.52612305 163.84423828 C429.11729421 173.10599667 423.6658099 182.34166827 418.1875 191.5625 C417.78098206 192.24679077 417.37446411 192.93108154 416.95562744 193.6361084 C411.87067745 202.19314288 406.76725866 210.73876084 401.63549805 219.26782227 C396.89212395 227.15982242 392.19737694 235.08057583 387.5 243 C381.90583709 252.43133786 376.30063 261.85527998 370.64550781 271.25024414 C367.52174546 276.4466066 364.42023844 281.65586144 361.328125 286.87109375 C360.91171753 287.57328033 360.49531006 288.27546692 360.06628418 288.99893188 C357.99181517 292.49769659 355.9187473 295.99728158 353.84765625 299.49804688 C351.94592082 302.71116882 350.03306184 305.91749697 348.11645508 309.12176514 C346.9825089 311.02942563 345.86483847 312.94602631 344.74804688 314.86376953 C344.03560317 316.06699651 343.32273227 317.26997067 342.609375 318.47265625 C341.98514648 319.5387915 341.36091797 320.60492676 340.71777344 321.70336914 C340.1509082 322.46125732 339.58404297 323.21914551 339 324 C338.01 324 337.02 324 336 324 C329.75377166 295.32225853 323.63310135 266.61988053 317.62890625 237.890625 C317.38815849 236.73872275 317.38815849 236.73872275 317.14254713 235.56354976 C315.13250578 225.94501903 313.12507918 216.32594331 311.11838186 206.70671445 C308.12339925 192.35092117 305.12325531 177.99620512 302.12360764 163.64138603 C301.42002793 160.27440276 300.71652214 156.90740406 300.0130806 153.54039192 C293.7021369 123.33378411 287.36354324 93.13307574 281 62.9375 C280.78750233 61.92907547 280.57500465 60.92065094 280.35606766 59.88166809 C277.90582905 48.25406886 275.45413424 36.62677766 273 25 C269.76963678 24.30701624 266.62955939 23.82060189 263.33541775 23.58022213 C262.42224645 23.51204657 261.50907515 23.443871 260.568232 23.37362951 C259.57387813 23.30261433 258.57952426 23.23159916 257.55503845 23.15843201 C256.49186498 23.07999009 255.4286915 23.00154817 254.33330065 22.92072922 C250.76530114 22.65825897 247.1969893 22.4003083 243.62866211 22.14233398 C241.07285133 21.95526373 238.51706058 21.76791984 235.96128845 21.58032227 C229.73705617 21.12419055 223.51261636 20.67099007 217.2880718 20.21914225 C210.04071654 19.69292162 202.79360522 19.16337829 195.54650218 18.63369728 C182.61737102 17.68883926 169.68802083 16.74701238 156.75854492 15.80688477 C144.20922825 14.89439668 131.66007015 13.97976654 119.11108398 13.06274414 C118.33804036 13.00625395 117.56499674 12.94976376 116.76852756 12.89156174 C115.99682676 12.83516941 115.22512597 12.77877708 114.4300403 12.72067589 C100.14698583 11.67694954 85.86379262 10.6351333 71.5805294 9.59426777 C66.52733343 9.22598544 61.47417778 8.85715294 56.42103386 8.48815727 C49.62257444 7.99175928 42.82399752 7.49700046 36.02533913 7.00333405 C33.52590195 6.82161856 31.02650071 6.63940803 28.52713776 6.45667458 C25.12418066 6.20796558 21.72109897 5.961038 18.31797791 5.71458435 C17.32139331 5.64133845 16.32480872 5.56809255 15.29802459 5.49262708 C14.38746105 5.42705927 13.4768975 5.36149145 12.53874111 5.29393673 C11.75315207 5.23676131 10.96756303 5.17958589 10.15816826 5.12067789 C8.10825362 5.0060532 6.05311686 5 4 5 Z " fill="#000000" transform="translate(204,113)"/>
<path d="M0 0 C2.86314356 0.5339183 5.73244623 1.01310074 8.60623169 1.48632812 C14.18732967 2.41273996 19.75947111 3.38397529 25.3298645 4.37255859 C28.82566496 4.99168099 32.32314322 5.60062716 35.8208313 6.20898438 C38.05596462 6.60290741 40.29099464 6.99741709 42.52590942 7.39257812 C43.56547287 7.57284546 44.60503632 7.75311279 45.67610168 7.93884277 C47.12965813 8.19921326 47.12965813 8.19921326 48.61257935 8.46484375 C49.45922653 8.61425415 50.30587372 8.76366455 51.17817688 8.91760254 C51.97999893 9.10528198 52.78182098 9.29296143 53.60794067 9.48632812 C54.48104889 9.67673172 55.3541571 9.86713531 56.25372314 10.06330872 C59.83927895 12.23061715 60.28516888 15.43165927 61.27078247 19.27612305 C61.49506487 20.08169207 61.71934727 20.88726109 61.9504261 21.71724129 C62.69264401 24.39973954 63.40579245 27.08912796 64.11965942 29.77929688 C64.63894789 31.67523062 65.16036385 33.5705828 65.68379211 35.46537781 C66.78260245 39.45089176 67.87121442 43.43899661 68.95309448 47.42913818 C71.31433385 56.10955871 73.79563824 64.75560166 76.26315689 73.40625381 C77.86529318 79.03771437 79.44768797 84.67473952 81.03161812 90.31134224 C82.3778035 95.10036306 83.72846861 99.88803021 85.08865356 104.6730957 C86.44142784 109.43259009 87.78342511 114.19499832 89.11771202 118.95970726 C89.61984623 120.74575644 90.12579379 122.53073839 90.63575172 124.31456947 C91.33713168 126.77049361 92.02459009 129.22991202 92.70877075 131.69067383 C92.91793121 132.41087708 93.12709167 133.13108032 93.34259033 133.87310791 C94.40515756 137.75744861 94.80118173 140.60443218 93.60794067 144.48632812 C78.28294188 145.95819646 62.9938092 146.94925238 47.60794067 147.48632812 C45.45537052 142.00073597 43.74223441 136.58629646 42.33963013 130.8671875 C42.13436707 130.04671936 41.929104 129.22625122 41.71762085 128.38092041 C41.0476809 125.69839843 40.38440266 123.01427833 39.72122192 120.33007812 C39.25509676 118.45810855 38.78855288 116.58624319 38.3216095 114.71447754 C37.09927877 109.8099501 35.88260968 104.90403553 34.66714478 99.99780273 C33.42363638 94.98270513 32.17473651 89.96895078 30.92630005 84.95507812 C28.48159069 75.13346115 26.04336541 65.31025149 23.60794067 55.48632812 C16.67794067 53.50632813 9.74794067 51.52632812 2.60794067 49.48632812 C1.28794067 50.82695312 -0.03205933 52.16757813 -1.39205933 53.54882812 C-4.31069429 56.47202345 -7.25548322 59.29873772 -10.39205933 61.98632812 C-13.36346142 64.5332442 -16.14349943 67.20011672 -18.89205933 69.98632812 C-22.25320415 73.39351602 -25.72907136 76.56090987 -29.36080933 79.67382812 C-31.62844505 81.69725692 -33.75782883 83.82286159 -35.89205933 85.98632812 C-39.25320415 89.39351602 -42.72907136 92.56090987 -46.36080933 95.67382812 C-48.62844505 97.69725692 -50.75782883 99.82286159 -52.89205933 101.98632812 C-55.79264948 104.90194724 -58.69474151 107.80812118 -61.70455933 110.61132812 C-62.31944214 111.19140625 -62.93432495 111.77148438 -63.56784058 112.36914062 C-65.39205933 113.48632812 -65.39205933 113.48632812 -67.28805542 113.35424805 C-71.88912926 111.45626505 -74.16645754 105.73837659 -76.70455933 101.67382812 C-77.36262573 100.66255859 -78.02069214 99.65128906 -78.69869995 98.609375 C-79.31551636 97.63419922 -79.93233276 96.65902344 -80.56784058 95.65429688 C-81.13414185 94.7599292 -81.70044312 93.86556152 -82.28390503 92.9440918 C-83.39205933 90.48632812 -83.39205933 90.48632812 -83.24191284 88.40307617 C-82.26742755 86.20523531 -81.11442724 84.53464346 -79.61862183 82.65039062 C-78.76071045 81.55936035 -78.76071045 81.55936035 -77.88546753 80.44628906 C-76.96060547 79.2904834 -76.96060547 79.2904834 -76.01705933 78.11132812 C-75.38437134 77.30985352 -74.75168335 76.50837891 -74.099823 75.68261719 C-72.81010582 74.04963608 -71.51771337 72.41876424 -70.22262573 70.79003906 C-68.14850119 68.17981778 -66.09000819 65.5577155 -64.03414917 62.93310547 C-62.70390974 61.23549915 -61.37076067 59.54022155 -60.03659058 57.84570312 C-57.31931282 54.39448855 -54.60548891 50.94056858 -51.89205933 47.48632812 C-50.97540703 46.31965017 -50.05874038 45.15298349 -49.14205933 43.98632812 C-48.68830933 43.40882813 -48.23455933 42.83132812 -47.76705933 42.23632812 C-42.72539266 35.81966146 -37.68372599 29.40299479 -32.64205933 22.98632812 C-31.96203857 22.11814453 -31.96203857 22.11814453 -31.26828003 21.23242188 C-30.35459941 20.07318047 -29.4338877 18.91944464 -28.506073 17.77148438 C-26.07976319 14.75047819 -23.86739138 11.71436982 -21.81784058 8.42382812 C-21.37955933 7.76511719 -20.94127808 7.10640625 -20.48971558 6.42773438 C-19.19138457 4.52278347 -19.19138457 4.52278347 -18.14987183 2.57617188 C-13.76057629 -3.82549171 -6.58218787 -1.24135507 0 0 Z M-11.39205933 3.48632812 C-12.95470835 5.32725711 -14.39798144 7.17172646 -15.82955933 9.11132812 C-16.73504503 10.31372699 -17.64132192 11.51553036 -18.54830933 12.71679688 C-19.01752808 13.34118652 -19.48674683 13.96557617 -19.97018433 14.60888672 C-22.218382 17.57740322 -24.52265849 20.50084469 -26.82955933 23.42382812 C-27.75537305 24.5995838 -28.68115411 25.77536521 -29.60690308 26.95117188 C-30.06693726 27.53495605 -30.52697144 28.11874023 -31.00094604 28.72021484 C-33.3008017 31.64003861 -35.59621877 34.56334706 -37.89205933 37.48632812 C-38.80870442 38.65301174 -39.7253711 39.8196784 -40.64205933 40.98632812 C-41.09580933 41.56382812 -41.54955933 42.14132813 -42.01705933 42.73632812 C-46.14205933 47.98632812 -46.14205933 47.98632812 -47.51681519 49.73583984 C-48.43452565 50.90395346 -49.35200571 52.07224812 -50.26925659 53.24072266 C-52.54311004 56.1367708 -54.82072455 59.02968436 -57.10690308 61.91601562 C-59.39025449 64.79996905 -61.65385078 67.69878165 -63.91256714 70.60205078 C-65.53204395 72.66461218 -67.17740982 74.70526376 -68.82174683 76.74804688 C-69.95019744 78.18097444 -71.07781872 79.61455555 -72.20455933 81.04882812 C-73.02428223 82.04922119 -73.02428223 82.04922119 -73.86056519 83.06982422 C-75.2300305 84.83662989 -76.42301634 86.47212845 -77.39205933 88.48632812 C-77.12680652 91.14575434 -77.12680652 91.14575434 -75.39205933 93.48632812 C-74.7501062 94.58589844 -74.10815308 95.68546875 -73.44674683 96.81835938 C-72.72419196 97.98101584 -71.99755052 99.14114155 -71.26705933 100.29882812 C-70.89452026 100.89630859 -70.5219812 101.49378906 -70.13815308 102.109375 C-69.22635452 103.57059063 -68.30969957 105.02877397 -67.39205933 106.48632812 C-63.49063213 104.87002257 -60.67770072 102.21193995 -57.64205933 99.36132812 C-57.11128784 98.86922852 -56.58051636 98.37712891 -56.03366089 97.87011719 C-52.34922721 94.43593007 -48.7797601 90.90104252 -45.24752808 87.31054688 C-43.37792286 85.47242975 -41.44355325 83.75647124 -39.45455933 82.04882812 C-36.46404217 79.47967542 -33.66089248 76.79315556 -30.89205933 73.98632812 C-27.53091451 70.57914023 -24.05504729 67.41174638 -20.42330933 64.29882812 C-17.36053601 61.56589194 -14.5196853 58.62265602 -11.63815308 55.70117188 C-8.86976398 52.97129949 -5.97576652 50.42149609 -3.02096558 47.89648438 C-1.7659836 46.81003714 -0.56580277 45.66007157 0.60794067 44.48632812 C2.24706549 44.6598747 3.88665244 44.85449313 5.50756836 45.15362549 C7.78898475 45.51500582 10.01005815 45.58598202 12.31716919 45.67919922 C18.19120012 46.29172299 23.12849105 47.46256377 27.60794067 51.48632812 C33.12528812 61.16858769 34.84144044 72.84218759 37.03390503 83.64544678 C37.87614915 87.70552368 38.81454868 91.74298202 39.74661255 95.78320312 C41.15591537 101.93783298 42.5151414 108.10092242 43.83010864 114.27636719 C45.84937443 123.74107645 48.15781446 133.12432131 50.60794067 142.48632812 C69.89646087 142.61807517 69.89646087 142.61807517 88.60794067 139.48632812 C87.38057471 132.94717323 85.90014406 126.54815119 84.08938599 120.1472168 C83.84513885 119.27240662 83.60089172 118.39759644 83.34924316 117.49627686 C82.54837956 114.6312821 81.74228538 111.76778856 80.93606567 108.90429688 C80.37006394 106.88390063 79.80437551 104.86341659 79.23898315 102.84284973 C77.75187378 97.53179295 76.26024473 92.22201567 74.76773071 86.91247559 C73.56534925 82.6322686 72.3660954 78.35118857 71.16704178 74.07004833 C65.69380677 54.52870309 60.19871731 34.99441575 54.60794067 15.48632812 C42.82872063 12.5418082 30.90279738 10.50179555 18.94754028 8.41479492 C15.39026518 7.79355833 11.83401252 7.16670454 8.27786255 6.5390625 C6.01945618 6.14225262 3.76099463 5.7457566 1.50247192 5.34960938 C-0.09421577 5.0684301 -0.09421577 5.0684301 -1.72315979 4.78157043 C-3.19158073 4.5258149 -3.19158073 4.5258149 -4.68966675 4.26489258 C-5.55202438 4.11405716 -6.41438202 3.96322174 -7.3028717 3.80781555 C-9.36921841 3.43563101 -9.36921841 3.43563101 -11.39205933 3.48632812 Z " fill="#000000" transform="translate(1010.3920593261719,176.513671875)"/>
</svg>
